<svg width="437" height="39" viewBox="0 0 437 39" fill="none" xmlns="http://www.w3.org/2000/svg">
<mask id="path-1-outside-1_3_235" maskUnits="userSpaceOnUse" x="-1.5863" y="-1" width="440" height="41" fill="black">
<rect fill="white" x="-1.5863" y="-1" width="440" height="41"/>
<path d="M36.4217 3.728L29.8337 29H22.3817L18.3497 12.368L14.1737 29H6.7217L0.313696 3.728H6.9017L10.5377 22.124L15.0377 3.728H21.8057L26.1257 22.124L29.7977 3.728H36.4217ZM56.177 8.696C58.481 8.696 60.329 9.464 61.721 11C63.113 12.512 63.809 14.6 63.809 17.264V29H57.689V18.092C57.689 16.748 57.341 15.704 56.645 14.96C55.949 14.216 55.013 13.844 53.837 13.844C52.661 13.844 51.725 14.216 51.029 14.96C50.333 15.704 49.985 16.748 49.985 18.092V29H43.829V2.36H49.985V11.612C50.609 10.724 51.461 10.016 52.541 9.488C53.621 8.96 54.833 8.696 56.177 8.696ZM71.1828 18.92C71.1828 16.856 71.5668 15.044 72.3348 13.484C73.1268 11.924 74.1948 10.724 75.5388 9.884C76.8828 9.044 78.3828 8.624 80.0388 8.624C81.4548 8.624 82.6908 8.912 83.7468 9.488C84.8268 10.064 85.6548 10.82 86.2308 11.756V8.912H92.3868V29H86.2308V26.156C85.6308 27.092 84.7908 27.848 83.7108 28.424C82.6548 29 81.4188 29.288 80.0028 29.288C78.3708 29.288 76.8828 28.868 75.5388 28.028C74.1948 27.164 73.1268 25.952 72.3348 24.392C71.5668 22.808 71.1828 20.984 71.1828 18.92ZM86.2308 18.956C86.2308 17.42 85.7988 16.208 84.9348 15.32C84.0948 14.432 83.0628 13.988 81.8388 13.988C80.6148 13.988 79.5708 14.432 78.7068 15.32C77.8668 16.184 77.4468 17.384 77.4468 18.92C77.4468 20.456 77.8668 21.68 78.7068 22.592C79.5708 23.48 80.6148 23.924 81.8388 23.924C83.0628 23.924 84.0948 23.48 84.9348 22.592C85.7988 21.704 86.2308 20.492 86.2308 18.956ZM112.356 23.78V29H109.224C106.992 29 105.252 28.46 104.004 27.38C102.756 26.276 102.132 24.488 102.132 22.016V14.024H99.6844V8.912H102.132V4.016H108.288V8.912H112.32V14.024H108.288V22.088C108.288 22.688 108.432 23.12 108.72 23.384C109.008 23.648 109.488 23.78 110.16 23.78H112.356ZM135.15 6.824C134.07 6.824 133.182 6.512 132.486 5.888C131.814 5.24 131.478 4.448 131.478 3.512C131.478 2.552 131.814 1.76 132.486 1.136C133.182 0.487998 134.07 0.163998 135.15 0.163998C136.206 0.163998 137.07 0.487998 137.742 1.136C138.438 1.76 138.786 2.552 138.786 3.512C138.786 4.448 138.438 5.24 137.742 5.888C137.07 6.512 136.206 6.824 135.15 6.824ZM138.21 8.912V29H132.054V8.912H138.21ZM155.163 29.288C153.411 29.288 151.851 28.988 150.483 28.388C149.115 27.788 148.035 26.972 147.243 25.94C146.451 24.884 146.007 23.708 145.911 22.412H151.995C152.067 23.108 152.391 23.672 152.967 24.104C153.543 24.536 154.251 24.752 155.091 24.752C155.859 24.752 156.447 24.608 156.855 24.32C157.287 24.008 157.503 23.612 157.503 23.132C157.503 22.556 157.203 22.136 156.603 21.872C156.003 21.584 155.031 21.272 153.687 20.936C152.247 20.6 151.047 20.252 150.087 19.892C149.127 19.508 148.299 18.92 147.603 18.128C146.907 17.312 146.559 16.22 146.559 14.852C146.559 13.7 146.871 12.656 147.495 11.72C148.143 10.76 149.079 10.004 150.303 9.452C151.551 8.9 153.027 8.624 154.731 8.624C157.251 8.624 159.231 9.248 160.671 10.496C162.135 11.744 162.975 13.4 163.191 15.464H157.503C157.407 14.768 157.095 14.216 156.567 13.808C156.063 13.4 155.391 13.196 154.551 13.196C153.831 13.196 153.279 13.34 152.895 13.628C152.511 13.892 152.319 14.264 152.319 14.744C152.319 15.32 152.619 15.752 153.219 16.04C153.843 16.328 154.803 16.616 156.099 16.904C157.587 17.288 158.799 17.672 159.735 18.056C160.671 18.416 161.487 19.016 162.183 19.856C162.903 20.672 163.275 21.776 163.299 23.168C163.299 24.344 162.963 25.4 162.291 26.336C161.643 27.248 160.695 27.968 159.447 28.496C158.223 29.024 156.795 29.288 155.163 29.288ZM195.575 8.696C197.927 8.696 199.799 9.464 201.191 11C202.607 12.512 203.315 14.6 203.315 17.264V29H197.195V18.092C197.195 16.748 196.847 15.704 196.151 14.96C195.455 14.216 194.519 13.844 193.343 13.844C192.167 13.844 191.231 14.216 190.535 14.96C189.839 15.704 189.491 16.748 189.491 18.092V29H183.335V8.912H189.491V11.576C190.115 10.688 190.955 9.992 192.011 9.488C193.067 8.96 194.255 8.696 195.575 8.696ZM221.056 29.288C219.088 29.288 217.312 28.868 215.728 28.028C214.168 27.188 212.932 25.988 212.02 24.428C211.132 22.868 210.688 21.044 210.688 18.956C210.688 16.892 211.144 15.08 212.056 13.52C212.968 11.936 214.216 10.724 215.8 9.884C217.384 9.044 219.16 8.624 221.128 8.624C223.096 8.624 224.872 9.044 226.456 9.884C228.04 10.724 229.288 11.936 230.2 13.52C231.112 15.08 231.568 16.892 231.568 18.956C231.568 21.02 231.1 22.844 230.164 24.428C229.252 25.988 227.992 27.188 226.384 28.028C224.8 28.868 223.024 29.288 221.056 29.288ZM221.056 23.96C222.232 23.96 223.228 23.528 224.044 22.664C224.884 21.8 225.304 20.564 225.304 18.956C225.304 17.348 224.896 16.112 224.08 15.248C223.288 14.384 222.304 13.952 221.128 13.952C219.928 13.952 218.932 14.384 218.14 15.248C217.348 16.088 216.952 17.324 216.952 18.956C216.952 20.564 217.336 21.8 218.104 22.664C218.896 23.528 219.88 23.96 221.056 23.96ZM250.35 23.78V29H247.218C244.986 29 243.246 28.46 241.998 27.38C240.75 26.276 240.126 24.488 240.126 22.016V14.024H237.678V8.912H240.126V4.016H246.282V8.912H250.314V14.024H246.282V22.088C246.282 22.688 246.426 23.12 246.714 23.384C247.002 23.648 247.482 23.78 248.154 23.78H250.35ZM261.195 6.824C260.115 6.824 259.227 6.512 258.531 5.888C257.859 5.24 257.523 4.448 257.523 3.512C257.523 2.552 257.859 1.76 258.531 1.136C259.227 0.487998 260.115 0.163998 261.195 0.163998C262.251 0.163998 263.115 0.487998 263.787 1.136C264.483 1.76 264.831 2.552 264.831 3.512C264.831 4.448 264.483 5.24 263.787 5.888C263.115 6.512 262.251 6.824 261.195 6.824ZM264.255 8.912V29H258.099V8.912H264.255ZM283.116 14.024H279.804V29H273.648V14.024H271.416V8.912H273.648V8.336C273.648 5.864 274.356 3.992 275.772 2.72C277.188 1.424 279.264 0.775999 282 0.775999C282.456 0.775999 282.792 0.787998 283.008 0.811998V6.032C281.832 5.96 281.004 6.128 280.524 6.536C280.044 6.944 279.804 7.676 279.804 8.732V8.912H283.116V14.024ZM310.849 8.912L298.249 38.54H291.625L296.233 28.316L288.061 8.912H294.937L299.581 21.476L304.189 8.912H310.849ZM323.551 11.756C324.127 10.82 324.955 10.064 326.035 9.488C327.115 8.912 328.351 8.624 329.743 8.624C331.399 8.624 332.899 9.044 334.243 9.884C335.587 10.724 336.643 11.924 337.411 13.484C338.203 15.044 338.599 16.856 338.599 18.92C338.599 20.984 338.203 22.808 337.411 24.392C336.643 25.952 335.587 27.164 334.243 28.028C332.899 28.868 331.399 29.288 329.743 29.288C328.327 29.288 327.091 29.012 326.035 28.46C324.979 27.884 324.151 27.128 323.551 26.192V29H317.395V2.36H323.551V11.756ZM332.335 18.92C332.335 17.384 331.903 16.184 331.039 15.32C330.199 14.432 329.155 13.988 327.907 13.988C326.683 13.988 325.639 14.432 324.775 15.32C323.935 16.208 323.515 17.42 323.515 18.956C323.515 20.492 323.935 21.704 324.775 22.592C325.639 23.48 326.683 23.924 327.907 23.924C329.131 23.924 330.175 23.48 331.039 22.592C331.903 21.68 332.335 20.456 332.335 18.92ZM365.085 18.632C365.085 19.208 365.049 19.808 364.977 20.432H351.045C351.141 21.68 351.537 22.64 352.233 23.312C352.953 23.96 353.829 24.284 354.861 24.284C356.397 24.284 357.465 23.636 358.065 22.34H364.617C364.281 23.66 363.669 24.848 362.781 25.904C361.917 26.96 360.825 27.788 359.505 28.388C358.185 28.988 356.709 29.288 355.077 29.288C353.109 29.288 351.357 28.868 349.821 28.028C348.285 27.188 347.085 25.988 346.221 24.428C345.357 22.868 344.925 21.044 344.925 18.956C344.925 16.868 345.345 15.044 346.185 13.484C347.049 11.924 348.249 10.724 349.785 9.884C351.321 9.044 353.085 8.624 355.077 8.624C357.021 8.624 358.749 9.032 360.261 9.848C361.773 10.664 362.949 11.828 363.789 13.34C364.653 14.852 365.085 16.616 365.085 18.632ZM358.785 17.012C358.785 15.956 358.425 15.116 357.705 14.492C356.985 13.868 356.085 13.556 355.005 13.556C353.973 13.556 353.097 13.856 352.377 14.456C351.681 15.056 351.249 15.908 351.081 17.012H358.785ZM371.428 18.92C371.428 16.856 371.812 15.044 372.58 13.484C373.372 11.924 374.44 10.724 375.784 9.884C377.128 9.044 378.628 8.624 380.284 8.624C381.7 8.624 382.936 8.912 383.992 9.488C385.072 10.064 385.9 10.82 386.476 11.756V8.912H392.632V29H386.476V26.156C385.876 27.092 385.036 27.848 383.956 28.424C382.9 29 381.664 29.288 380.248 29.288C378.616 29.288 377.128 28.868 375.784 28.028C374.44 27.164 373.372 25.952 372.58 24.392C371.812 22.808 371.428 20.984 371.428 18.92ZM386.476 18.956C386.476 17.42 386.044 16.208 385.18 15.32C384.34 14.432 383.308 13.988 382.084 13.988C380.86 13.988 379.816 14.432 378.952 15.32C378.112 16.184 377.692 17.384 377.692 18.92C377.692 20.456 378.112 21.68 378.952 22.592C379.816 23.48 380.86 23.924 382.084 23.924C383.308 23.924 384.34 23.48 385.18 22.592C386.044 21.704 386.476 20.492 386.476 18.956ZM407.562 12.26C408.282 11.156 409.182 10.292 410.262 9.668C411.342 9.02 412.542 8.696 413.862 8.696V15.212H412.17C410.634 15.212 409.482 15.548 408.714 16.22C407.946 16.868 407.562 18.02 407.562 19.676V29H401.406V8.912H407.562V12.26ZM428.504 2.324C431.072 2.324 433.124 2.996 434.66 4.34C436.22 5.684 437 7.58 437 10.028C437 12.284 436.256 14.048 434.768 15.32C433.304 16.568 431.36 17.204 428.936 17.228L428.756 19.928H423.356L423.176 13.232H425.336C427.184 13.232 428.588 13.004 429.548 12.548C430.532 12.092 431.024 11.264 431.024 10.064C431.024 9.224 430.796 8.564 430.34 8.084C429.884 7.604 429.248 7.364 428.432 7.364C427.568 7.364 426.896 7.616 426.416 8.12C425.936 8.6 425.696 9.26 425.696 10.1H419.9C419.852 8.636 420.152 7.316 420.8 6.14C421.472 4.964 422.456 4.04 423.752 3.368C425.072 2.672 426.656 2.324 428.504 2.324ZM426.128 29.288C425.048 29.288 424.16 28.976 423.464 28.352C422.792 27.704 422.456 26.912 422.456 25.976C422.456 25.016 422.792 24.212 423.464 23.564C424.16 22.916 425.048 22.592 426.128 22.592C427.184 22.592 428.048 22.916 428.72 23.564C429.416 24.212 429.764 25.016 429.764 25.976C429.764 26.912 429.416 27.704 428.72 28.352C428.048 28.976 427.184 29.288 426.128 29.288Z"/>
</mask>
<path d="M36.4217 3.728L37.3894 3.98025L37.7158 2.728H36.4217V3.728ZM29.8337 29V30H30.6064L30.8014 29.2523L29.8337 29ZM22.3817 29L21.4098 29.2356L21.5952 30H22.3817V29ZM18.3497 12.368L19.3215 12.1324L17.3798 12.1245L18.3497 12.368ZM14.1737 29V30H14.9537L15.1436 29.2435L14.1737 29ZM6.7217 29L5.75237 29.2458L5.94361 30H6.7217V29ZM0.313696 3.728V2.728H-0.971511L-0.655629 3.97378L0.313696 3.728ZM6.9017 3.728L7.88272 3.5341L7.72339 2.728H6.9017V3.728ZM10.5377 22.124L9.55668 22.3179L11.5091 22.3616L10.5377 22.124ZM15.0377 3.728V2.728H14.2528L14.0663 3.49039L15.0377 3.728ZM21.8057 3.728L22.7792 3.49938L22.5981 2.728H21.8057V3.728ZM26.1257 22.124L25.1522 22.3526L27.1064 22.3197L26.1257 22.124ZM29.7977 3.728V2.728H28.9776L28.817 3.53225L29.7977 3.728ZM35.454 3.47575L28.866 28.7477L30.8014 29.2523L37.3894 3.98025L35.454 3.47575ZM29.8337 28H22.3817V30H29.8337V28ZM23.3535 28.7644L19.3215 12.1324L17.3778 12.6036L21.4098 29.2356L23.3535 28.7644ZM17.3798 12.1245L13.2038 28.7565L15.1436 29.2435L19.3196 12.6115L17.3798 12.1245ZM14.1737 28H6.7217V30H14.1737V28ZM7.69102 28.7542L1.28302 3.48222L-0.655629 3.97378L5.75237 29.2458L7.69102 28.7542ZM0.313696 4.728H6.9017V2.728H0.313696V4.728ZM5.92068 3.9219L9.55668 22.3179L11.5187 21.9301L7.88272 3.5341L5.92068 3.9219ZM11.5091 22.3616L16.0091 3.96561L14.0663 3.49039L9.56634 21.8864L11.5091 22.3616ZM15.0377 4.728H21.8057V2.728H15.0377V4.728ZM20.8322 3.95661L25.1522 22.3526L27.0992 21.8954L22.7792 3.49938L20.8322 3.95661ZM27.1064 22.3197L30.7784 3.92375L28.817 3.53225L25.145 21.9283L27.1064 22.3197ZM29.7977 4.728H36.4217V2.728H29.7977V4.728ZM61.721 11L60.98 11.6715L60.9853 11.6773L61.721 11ZM63.809 29V30H64.809V29H63.809ZM57.689 29H56.689V30H57.689V29ZM56.645 14.96L55.9147 15.6432L55.9147 15.6432L56.645 14.96ZM51.029 14.96L51.7592 15.6432L51.7592 15.6432L51.029 14.96ZM49.985 29V30H50.985V29H49.985ZM43.829 29H42.829V30H43.829V29ZM43.829 2.36V1.36H42.829V2.36H43.829ZM49.985 2.36H50.985V1.36H49.985V2.36ZM49.985 11.612H48.985V14.7744L50.8032 12.1869L49.985 11.612ZM52.541 9.488L52.1018 8.58961L52.1018 8.58961L52.541 9.488ZM56.177 9.696C58.2337 9.696 59.7999 10.3693 60.98 11.6715L62.462 10.3285C60.8581 8.55869 58.7282 7.696 56.177 7.696V9.696ZM60.9853 11.6773C62.1617 12.9552 62.809 14.7743 62.809 17.264H64.809C64.809 14.4257 64.0642 12.0688 62.4567 10.3227L60.9853 11.6773ZM62.809 17.264V29H64.809V17.264H62.809ZM63.809 28H57.689V30H63.809V28ZM58.689 29V18.092H56.689V29H58.689ZM58.689 18.092C58.689 16.5774 58.294 15.259 57.3752 14.2768L55.9147 15.6432C56.3879 16.149 56.689 16.9186 56.689 18.092H58.689ZM57.3752 14.2768C56.4604 13.2989 55.243 12.844 53.837 12.844V14.844C54.783 14.844 55.4375 15.1331 55.9147 15.6432L57.3752 14.2768ZM53.837 12.844C52.431 12.844 51.2135 13.2989 50.2987 14.2768L51.7592 15.6432C52.2364 15.1331 52.891 14.844 53.837 14.844V12.844ZM50.2987 14.2768C49.3799 15.259 48.985 16.5774 48.985 18.092H50.985C50.985 16.9186 51.286 16.149 51.7592 15.6432L50.2987 14.2768ZM48.985 18.092V29H50.985V18.092H48.985ZM49.985 28H43.829V30H49.985V28ZM44.829 29V2.36H42.829V29H44.829ZM43.829 3.36H49.985V1.36H43.829V3.36ZM48.985 2.36V11.612H50.985V2.36H48.985ZM50.8032 12.1869C51.32 11.4514 52.0351 10.8484 52.9802 10.3864L52.1018 8.58961C50.8868 9.18358 49.8979 9.99657 49.1668 11.0371L50.8032 12.1869ZM52.9802 10.3864C53.908 9.93278 54.9671 9.696 56.177 9.696V7.696C54.6989 7.696 53.3339 7.98722 52.1018 8.58961L52.9802 10.3864ZM72.3348 13.484L71.4431 13.0313L71.4376 13.0423L72.3348 13.484ZM75.5388 9.884L76.0688 10.732L76.0688 10.732L75.5388 9.884ZM83.7468 9.488L83.2679 10.3659L83.2762 10.3704L83.7468 9.488ZM86.2308 11.756L85.3791 12.2801L87.2308 15.289V11.756H86.2308ZM86.2308 8.912V7.912H85.2308V8.912H86.2308ZM92.3868 8.912H93.3868V7.912H92.3868V8.912ZM92.3868 29V30H93.3868V29H92.3868ZM86.2308 29H85.2308V30H86.2308V29ZM86.2308 26.156H87.2308V22.743L85.3889 25.6163L86.2308 26.156ZM83.7108 28.424L83.2402 27.5416L83.2319 27.5461L83.7108 28.424ZM75.5388 28.028L74.998 28.8692L75.0088 28.876L75.5388 28.028ZM72.3348 24.392L71.435 24.8283L71.439 24.8365L71.4431 24.8447L72.3348 24.392ZM84.9348 15.32L84.2082 16.0073L84.2181 16.0174L84.9348 15.32ZM78.7068 15.32L77.9901 14.6226L77.9898 14.6229L78.7068 15.32ZM78.7068 22.592L77.9712 23.2695L77.9805 23.2795L77.9901 23.2894L78.7068 22.592ZM84.9348 22.592L84.218 21.8946L84.2083 21.9048L84.9348 22.592ZM72.1828 18.92C72.1828 16.9807 72.5431 15.3249 73.232 13.9257L71.4376 13.0423C70.5904 14.7631 70.1828 16.7313 70.1828 18.92H72.1828ZM73.2265 13.9367C73.9449 12.5215 74.8948 11.4658 76.0688 10.732L75.0088 9.036C73.4948 9.98224 72.3087 11.3265 71.4431 13.0313L73.2265 13.9367ZM76.0688 10.732C77.2465 9.9959 78.5614 9.624 80.0388 9.624V7.624C78.2042 7.624 76.519 8.09209 75.0088 9.036L76.0688 10.732ZM80.0388 9.624C81.3172 9.624 82.3829 9.88313 83.2679 10.3659L84.2256 8.6101C82.9987 7.94087 81.5924 7.624 80.0388 7.624V9.624ZM83.2762 10.3704C84.2179 10.8726 84.9064 11.5119 85.3791 12.2801L87.0824 11.2319C86.4032 10.1281 85.4357 9.25541 84.2174 8.60565L83.2762 10.3704ZM87.2308 11.756V8.912H85.2308V11.756H87.2308ZM86.2308 9.912H92.3868V7.912H86.2308V9.912ZM91.3868 8.912V29H93.3868V8.912H91.3868ZM92.3868 28H86.2308V30H92.3868V28ZM87.2308 29V26.156H85.2308V29H87.2308ZM85.3889 25.6163C84.8904 26.394 84.1848 27.0379 83.2402 27.5416L84.1814 29.3064C85.3968 28.6581 86.3712 27.79 87.0727 26.6957L85.3889 25.6163ZM83.2319 27.5461C82.3469 28.0289 81.2812 28.288 80.0028 28.288V30.288C81.5564 30.288 82.9627 29.9711 84.1896 29.3019L83.2319 27.5461ZM80.0028 28.288C78.5523 28.288 77.249 27.9176 76.0688 27.18L75.0088 28.876C76.5166 29.8184 78.1892 30.288 80.0028 30.288V28.288ZM76.0795 27.1868C74.8989 26.4278 73.9459 25.3564 73.2265 23.9393L71.4431 24.8447C72.3077 26.5476 73.4907 27.9002 74.998 28.8692L76.0795 27.1868ZM73.2346 23.9557C72.543 22.5293 72.1828 20.8588 72.1828 18.92H70.1828C70.1828 21.1092 70.5906 23.0867 71.435 24.8283L73.2346 23.9557ZM87.2308 18.956C87.2308 17.2254 86.7384 15.7397 85.6515 14.6226L84.2181 16.0174C84.8592 16.6763 85.2308 17.6146 85.2308 18.956H87.2308ZM85.6613 14.6328C84.6321 13.5448 83.3372 12.988 81.8388 12.988V14.988C82.7884 14.988 83.5575 15.3192 84.2083 16.0072L85.6613 14.6328ZM81.8388 12.988C80.3411 12.988 79.0397 13.5438 77.9901 14.6226L79.4235 16.0174C80.1019 15.3202 80.8885 14.988 81.8388 14.988V12.988ZM77.9898 14.6229C76.9222 15.7211 76.4468 17.1984 76.4468 18.92H78.4468C78.4468 17.5696 78.8114 16.6469 79.4238 16.0171L77.9898 14.6229ZM76.4468 18.92C76.4468 20.6443 76.923 22.1314 77.9712 23.2695L79.4423 21.9145C78.8106 21.2286 78.4468 20.2677 78.4468 18.92H76.4468ZM77.9901 23.2894C79.0397 24.3682 80.3411 24.924 81.8388 24.924V22.924C80.8885 22.924 80.1019 22.5918 79.4235 21.8946L77.9901 23.2894ZM81.8388 24.924C83.3372 24.924 84.6321 24.3672 85.6613 23.2792L84.2083 21.9048C83.5575 22.5928 82.7884 22.924 81.8388 22.924V24.924ZM85.6515 23.2894C86.7384 22.1723 87.2308 20.6866 87.2308 18.956H85.2308C85.2308 20.2974 84.8592 21.2357 84.2181 21.8946L85.6515 23.2894ZM112.356 23.78H113.356V22.78H112.356V23.78ZM112.356 29V30H113.356V29H112.356ZM104.004 27.38L103.342 28.129L103.35 28.1362L104.004 27.38ZM102.132 14.024H103.132V13.024H102.132V14.024ZM99.6844 14.024H98.6844V15.024H99.6844V14.024ZM99.6844 8.912V7.912H98.6844V8.912H99.6844ZM102.132 8.912V9.912H103.132V8.912H102.132ZM102.132 4.016V3.016H101.132V4.016H102.132ZM108.288 4.016H109.288V3.016H108.288V4.016ZM108.288 8.912H107.288V9.912H108.288V8.912ZM112.32 8.912H113.32V7.912H112.32V8.912ZM112.32 14.024V15.024H113.32V14.024H112.32ZM108.288 14.024V13.024H107.288V14.024H108.288ZM108.72 23.384L108.045 24.1212L108.045 24.1212L108.72 23.384ZM111.356 23.78V29H113.356V23.78H111.356ZM112.356 28H109.224V30H112.356V28ZM109.224 28C107.147 28 105.67 27.4986 104.659 26.6238L103.35 28.1362C104.835 29.4214 106.837 30 109.224 30V28ZM104.667 26.631C103.72 25.7933 103.132 24.3417 103.132 22.016H101.132C101.132 24.6343 101.793 26.7587 103.342 28.129L104.667 26.631ZM103.132 22.016V14.024H101.132V22.016H103.132ZM102.132 13.024H99.6844V15.024H102.132V13.024ZM100.684 14.024V8.912H98.6844V14.024H100.684ZM99.6844 9.912H102.132V7.912H99.6844V9.912ZM103.132 8.912V4.016H101.132V8.912H103.132ZM102.132 5.016H108.288V3.016H102.132V5.016ZM107.288 4.016V8.912H109.288V4.016H107.288ZM108.288 9.912H112.32V7.912H108.288V9.912ZM111.32 8.912V14.024H113.32V8.912H111.32ZM112.32 13.024H108.288V15.024H112.32V13.024ZM107.288 14.024V22.088H109.288V14.024H107.288ZM107.288 22.088C107.288 22.8193 107.461 23.5863 108.045 24.1212L109.396 22.6468C109.395 22.6454 109.389 22.6404 109.381 22.6271C109.372 22.6133 109.359 22.5879 109.345 22.5458C109.316 22.4583 109.288 22.3126 109.288 22.088H107.288ZM108.045 24.1212C108.611 24.6402 109.404 24.78 110.16 24.78V22.78C109.573 22.78 109.406 22.6558 109.396 22.6468L108.045 24.1212ZM110.16 24.78H112.356V22.78H110.16V24.78ZM132.486 5.888L131.792 6.60784L131.805 6.62045L131.819 6.63257L132.486 5.888ZM132.486 1.136L133.167 1.86879L133.168 1.86789L132.486 1.136ZM137.742 1.136L137.048 1.85584L137.061 1.86845L137.075 1.88057L137.742 1.136ZM137.742 5.888L138.423 6.62079L138.424 6.61989L137.742 5.888ZM138.21 8.912H139.21V7.912H138.21V8.912ZM138.21 29V30H139.21V29H138.21ZM132.054 29H131.054V30H132.054V29ZM132.054 8.912V7.912H131.054V8.912H132.054ZM135.15 5.824C134.276 5.824 133.638 5.57763 133.154 5.14343L131.819 6.63257C132.726 7.44637 133.865 7.824 135.15 7.824V5.824ZM133.18 5.16816C132.704 4.70919 132.478 4.17729 132.478 3.512H130.478C130.478 4.71871 130.924 5.77081 131.792 6.60784L133.18 5.16816ZM132.478 3.512C132.478 2.81538 132.709 2.29381 133.167 1.86879L131.806 0.403205C130.92 1.22618 130.478 2.28861 130.478 3.512H132.478ZM133.168 1.86789C133.653 1.41583 134.286 1.164 135.15 1.164V-0.836002C133.854 -0.836002 132.711 -0.43983 131.805 0.404104L133.168 1.86789ZM135.15 1.164C135.984 1.164 136.587 1.41159 137.048 1.85584L138.436 0.416154C137.553 -0.435598 136.428 -0.836002 135.15 -0.836002V1.164ZM137.075 1.88057C137.553 2.30913 137.786 2.82741 137.786 3.512H139.786C139.786 2.27659 139.324 1.21087 138.41 0.391429L137.075 1.88057ZM137.786 3.512C137.786 4.16539 137.557 4.69384 137.061 5.15611L138.424 6.61989C139.319 5.78616 139.786 4.73061 139.786 3.512H137.786ZM137.062 5.15521C136.603 5.58145 135.995 5.824 135.15 5.824V7.824C136.418 7.824 137.538 7.44254 138.423 6.62079L137.062 5.15521ZM137.21 8.912V29H139.21V8.912H137.21ZM138.21 28H132.054V30H138.21V28ZM133.054 29V8.912H131.054V29H133.054ZM132.054 9.912H138.21V7.912H132.054V9.912ZM150.483 28.388L150.885 27.4722L150.885 27.4722L150.483 28.388ZM147.243 25.94L146.443 26.54L146.45 26.5488L147.243 25.94ZM145.911 22.412V21.412H144.835L144.914 22.4859L145.911 22.412ZM151.995 22.412L152.99 22.3091L152.897 21.412H151.995V22.412ZM152.967 24.104L153.567 23.304L153.567 23.304L152.967 24.104ZM156.855 24.32L157.432 25.137L157.441 25.1307L156.855 24.32ZM156.603 21.872L156.171 22.7735L156.186 22.7807L156.201 22.7873L156.603 21.872ZM153.687 20.936L153.93 19.9659L153.922 19.9639L153.915 19.9622L153.687 20.936ZM150.087 19.892L149.716 20.8205L149.726 20.8245L149.736 20.8283L150.087 19.892ZM147.603 18.128L146.843 18.7769L146.847 18.7826L146.852 18.7881L147.603 18.128ZM147.495 11.72L146.667 11.1605L146.663 11.1653L147.495 11.72ZM150.303 9.452L149.899 8.53744L149.892 8.54041L150.303 9.452ZM160.671 10.496L160.017 11.2517L160.023 11.257L160.671 10.496ZM163.191 15.464V16.464H164.302L164.186 15.3599L163.191 15.464ZM157.503 15.464L156.513 15.6006L156.632 16.464H157.503V15.464ZM156.567 13.808L155.938 14.5852L155.947 14.5924L155.956 14.5993L156.567 13.808ZM152.895 13.628L153.462 14.452L153.479 14.4404L153.495 14.428L152.895 13.628ZM153.219 16.04L152.787 16.9415L152.794 16.9448L152.8 16.948L153.219 16.04ZM156.099 16.904L156.349 15.9357L156.333 15.9315L156.316 15.9278L156.099 16.904ZM159.735 18.056L159.356 18.9812L159.366 18.9854L159.376 18.9893L159.735 18.056ZM162.183 19.856L161.413 20.494L161.423 20.506L161.434 20.5176L162.183 19.856ZM163.299 23.168H164.299V23.1594L164.299 23.1508L163.299 23.168ZM162.291 26.336L161.479 25.7528L161.476 25.7568L162.291 26.336ZM159.447 28.496L159.058 27.575L159.051 27.5778L159.447 28.496ZM155.163 28.288C153.526 28.288 152.107 28.0079 150.885 27.4722L150.082 29.3038C151.596 29.9681 153.297 30.288 155.163 30.288V28.288ZM150.885 27.4722C149.648 26.9298 148.712 26.2108 148.037 25.3312L146.45 26.5488C147.359 27.7332 148.583 28.6462 150.082 29.3038L150.885 27.4722ZM148.043 25.34C147.364 24.4344 146.99 23.4403 146.909 22.3381L144.914 22.4859C145.025 23.9757 145.539 25.3336 146.443 26.54L148.043 25.34ZM145.911 23.412H151.995V21.412H145.911V23.412ZM151.001 22.5149C151.102 23.4971 151.576 24.3103 152.367 24.904L153.567 23.304C153.207 23.0337 153.033 22.7189 152.99 22.3091L151.001 22.5149ZM152.367 24.904C153.144 25.4866 154.073 25.752 155.091 25.752V23.752C154.43 23.752 153.943 23.5854 153.567 23.304L152.367 24.904ZM155.091 25.752C155.962 25.752 156.787 25.5925 157.432 25.137L156.279 23.503C156.108 23.6235 155.757 23.752 155.091 23.752V25.752ZM157.441 25.1307C158.1 24.6547 158.503 23.972 158.503 23.132H156.503C156.503 23.252 156.475 23.3613 156.27 23.5093L157.441 25.1307ZM158.503 23.132C158.503 22.6608 158.377 22.2028 158.092 21.8038C157.813 21.4129 157.427 21.1418 157.006 20.9567L156.201 22.7873C156.38 22.8662 156.444 22.9371 156.465 22.9662C156.48 22.9872 156.503 23.0272 156.503 23.132H158.503ZM157.036 20.9705C156.34 20.6362 155.285 20.3046 153.93 19.9659L153.445 21.9061C154.778 22.2394 155.667 22.5318 156.171 22.7735L157.036 20.9705ZM153.915 19.9622C152.5 19.6321 151.345 19.2955 150.439 18.9557L149.736 20.8283C150.75 21.2085 151.995 21.5679 153.46 21.9098L153.915 19.9622ZM150.459 18.9635C149.648 18.6391 148.949 18.1442 148.355 17.4679L146.852 18.7881C147.65 19.6958 148.607 20.3769 149.716 20.8205L150.459 18.9635ZM148.364 17.4791C147.861 16.8893 147.559 16.0493 147.559 14.852H145.559C145.559 16.3907 145.954 17.7347 146.843 18.7769L148.364 17.4791ZM147.559 14.852C147.559 13.8924 147.816 13.0423 148.328 12.2747L146.663 11.1653C145.927 12.2697 145.559 13.5076 145.559 14.852H147.559ZM148.324 12.2795C148.853 11.4965 149.632 10.8516 150.715 10.3636L149.892 8.54041C148.527 9.15636 147.434 10.0235 146.667 11.1605L148.324 12.2795ZM150.708 10.3665C151.801 9.88305 153.133 9.624 154.731 9.624V7.624C152.922 7.624 151.302 7.91694 149.899 8.53746L150.708 10.3665ZM154.731 9.624C157.09 9.624 158.81 10.2061 160.017 11.2517L161.326 9.74031C159.653 8.28988 157.413 7.624 154.731 7.624V9.624ZM160.023 11.257C161.275 12.3247 162.005 13.7373 162.197 15.5681L164.186 15.3599C163.946 13.0627 162.996 11.1633 161.32 9.73498L160.023 11.257ZM163.191 14.464H157.503V16.464H163.191V14.464ZM158.494 15.3274C158.364 14.3871 157.926 13.594 157.179 13.0167L155.956 14.5993C156.265 14.838 156.451 15.1489 156.513 15.6006L158.494 15.3274ZM157.197 13.0308C156.468 12.4407 155.552 12.196 154.551 12.196V14.196C155.231 14.196 155.659 14.3593 155.938 14.5852L157.197 13.0308ZM154.551 12.196C153.718 12.196 152.92 12.3597 152.295 12.828L153.495 14.428C153.639 14.3203 153.945 14.196 154.551 14.196V12.196ZM152.329 12.804C151.664 13.2611 151.319 13.9465 151.319 14.744H153.319C153.319 14.5815 153.359 14.5229 153.462 14.452L152.329 12.804ZM151.319 14.744C151.319 15.2156 151.446 15.671 151.723 16.0704C151.995 16.4615 152.371 16.7422 152.787 16.9415L153.652 15.1385C153.468 15.0498 153.394 14.9705 153.366 14.9296C153.343 14.897 153.319 14.8484 153.319 14.744H151.319ZM152.8 16.948C153.524 17.282 154.569 17.5882 155.883 17.8802L156.316 15.9278C155.038 15.6438 154.163 15.374 153.639 15.132L152.8 16.948ZM155.85 17.8723C157.314 18.2501 158.478 18.6209 159.356 18.9812L160.115 17.1308C159.121 16.7231 157.861 16.3259 156.349 15.9357L155.85 17.8723ZM159.376 18.9893C160.139 19.2825 160.817 19.7742 161.413 20.494L162.953 19.218C162.158 18.2578 161.204 17.5495 160.094 17.1227L159.376 18.9893ZM161.434 20.5176C161.957 21.1103 162.279 21.9629 162.3 23.1852L164.299 23.1508C164.272 21.5891 163.85 20.2337 162.933 19.1944L161.434 20.5176ZM162.299 23.168C162.299 24.1394 162.026 24.9905 161.479 25.7528L163.104 26.9192C163.901 25.8095 164.299 24.5486 164.299 23.168H162.299ZM161.476 25.7568C160.956 26.4885 160.171 27.104 159.058 27.575L159.837 29.417C161.22 28.832 162.331 28.0075 163.107 26.9152L161.476 25.7568ZM159.051 27.5778C157.977 28.0412 156.689 28.288 155.163 28.288V30.288C156.902 30.288 158.47 30.0068 159.844 29.4142L159.051 27.5778ZM201.191 11L200.45 11.6715L200.455 11.6776L200.461 11.6836L201.191 11ZM203.315 29V30H204.315V29H203.315ZM197.195 29H196.195V30H197.195V29ZM196.151 14.96L195.42 15.6432L195.42 15.6432L196.151 14.96ZM190.535 14.96L191.265 15.6432L191.265 15.6432L190.535 14.96ZM189.491 29V30H190.491V29H189.491ZM183.335 29H182.335V30H183.335V29ZM183.335 8.912V7.912H182.335V8.912H183.335ZM189.491 8.912H190.491V7.912H189.491V8.912ZM189.491 11.576H188.491V14.7384L190.309 12.1509L189.491 11.576ZM192.011 9.488L192.441 10.3905L192.45 10.3865L192.458 10.3824L192.011 9.488ZM195.575 9.696C197.686 9.696 199.274 10.3739 200.45 11.6715L201.932 10.3285C200.324 8.55406 198.167 7.696 195.575 7.696V9.696ZM200.461 11.6836C201.658 12.9618 202.315 14.7787 202.315 17.264H204.315C204.315 14.4213 203.555 12.0622 201.92 10.3164L200.461 11.6836ZM202.315 17.264V29H204.315V17.264H202.315ZM203.315 28H197.195V30H203.315V28ZM198.195 29V18.092H196.195V29H198.195ZM198.195 18.092C198.195 16.5774 197.8 15.259 196.881 14.2768L195.42 15.6432C195.894 16.149 196.195 16.9186 196.195 18.092H198.195ZM196.881 14.2768C195.966 13.2989 194.749 12.844 193.343 12.844V14.844C194.289 14.844 194.943 15.1331 195.42 15.6432L196.881 14.2768ZM193.343 12.844C191.937 12.844 190.719 13.2989 189.804 14.2768L191.265 15.6432C191.742 15.1331 192.397 14.844 193.343 14.844V12.844ZM189.804 14.2768C188.886 15.259 188.491 16.5774 188.491 18.092H190.491C190.491 16.9186 190.792 16.149 191.265 15.6432L189.804 14.2768ZM188.491 18.092V29H190.491V18.092H188.491ZM189.491 28H183.335V30H189.491V28ZM184.335 29V8.912H182.335V29H184.335ZM183.335 9.912H189.491V7.912H183.335V9.912ZM188.491 8.912V11.576H190.491V8.912H188.491ZM190.309 12.1509C190.826 11.4145 191.528 10.8264 192.441 10.3905L191.58 8.58552C190.381 9.15761 189.403 9.96147 188.672 11.0011L190.309 12.1509ZM192.458 10.3824C193.359 9.93169 194.391 9.696 195.575 9.696V7.696C194.118 7.696 192.774 7.98831 191.563 8.59357L192.458 10.3824ZM215.728 28.028L215.254 28.9085L215.26 28.9115L215.728 28.028ZM212.02 24.428L211.151 24.9227L211.157 24.9327L212.02 24.428ZM212.056 13.52L212.92 14.0247L212.923 14.019L212.056 13.52ZM215.8 9.884L216.269 10.7675L216.269 10.7675L215.8 9.884ZM226.456 9.884L225.988 10.7675L225.988 10.7675L226.456 9.884ZM230.2 13.52L229.334 14.019L229.337 14.0247L230.2 13.52ZM230.164 24.428L229.303 23.9193L229.301 23.9233L230.164 24.428ZM226.384 28.028L225.921 27.1416L225.916 27.1445L226.384 28.028ZM224.044 22.664L223.327 21.9669L223.322 21.9721L223.317 21.9774L224.044 22.664ZM224.08 15.248L223.343 15.9237L223.348 15.9292L223.353 15.9346L224.08 15.248ZM218.14 15.248L218.868 15.9341L218.878 15.9237L218.14 15.248ZM218.104 22.664L217.357 23.3284L217.362 23.3341L217.367 23.3397L218.104 22.664ZM221.056 28.288C219.235 28.288 217.623 27.9007 216.197 27.1445L215.26 28.9115C217.002 29.8353 218.941 30.288 221.056 30.288V28.288ZM216.203 27.1475C214.808 26.3965 213.705 25.328 212.884 23.9233L211.157 24.9327C212.16 26.648 213.529 27.9795 215.254 28.9085L216.203 27.1475ZM212.889 23.9333C212.1 22.5471 211.688 20.8991 211.688 18.956H209.688C209.688 21.1889 210.164 23.1889 211.151 24.9227L212.889 23.9333ZM211.688 18.956C211.688 17.0437 212.109 15.4108 212.92 14.0247L211.193 13.0153C210.179 14.7492 209.688 16.7403 209.688 18.956H211.688ZM212.923 14.019C213.743 12.5947 214.855 11.5175 216.269 10.7675L215.332 9.00054C213.578 9.93049 212.194 11.2773 211.19 13.021L212.923 14.019ZM216.269 10.7675C217.695 10.0113 219.307 9.624 221.128 9.624V7.624C219.013 7.624 217.074 8.07673 215.332 9.00054L216.269 10.7675ZM221.128 9.624C222.949 9.624 224.562 10.0113 225.988 10.7675L226.925 9.00054C225.183 8.07673 223.243 7.624 221.128 7.624V9.624ZM225.988 10.7675C227.402 11.5175 228.514 12.5947 229.334 14.019L231.067 13.021C230.063 11.2773 228.679 9.93049 226.925 9.00054L225.988 10.7675ZM229.337 14.0247C230.147 15.4108 230.568 17.0437 230.568 18.956H232.568C232.568 16.7403 232.077 14.7492 231.064 13.0153L229.337 14.0247ZM230.568 18.956C230.568 20.8633 230.138 22.5075 229.303 23.9193L231.025 24.9367C232.063 23.1805 232.568 21.1767 232.568 18.956H230.568ZM229.301 23.9233C228.484 25.3203 227.363 26.3883 225.921 27.1417L226.847 28.9143C228.621 27.9877 230.02 26.6557 231.028 24.9327L229.301 23.9233ZM225.916 27.1445C224.49 27.9007 222.877 28.288 221.056 28.288V30.288C223.171 30.288 225.111 29.8353 226.853 28.9115L225.916 27.1445ZM221.056 24.96C222.511 24.96 223.769 24.4122 224.771 23.3506L223.317 21.9774C222.688 22.6438 221.954 22.96 221.056 22.96V24.96ZM224.761 23.3611C225.837 22.2548 226.304 20.7348 226.304 18.956H224.304C224.304 20.3932 223.932 21.3452 223.327 21.9669L224.761 23.3611ZM226.304 18.956C226.304 17.1845 225.853 15.6685 224.807 14.5614L223.353 15.9346C223.94 16.5555 224.304 17.5115 224.304 18.956H226.304ZM224.818 14.5723C223.835 13.5009 222.584 12.952 221.128 12.952V14.952C222.025 14.952 222.741 15.2671 223.343 15.9237L224.818 14.5723ZM221.128 12.952C219.656 12.952 218.39 13.4961 217.403 14.5723L218.878 15.9237C219.475 15.2719 220.201 14.952 221.128 14.952V12.952ZM217.413 14.562C216.385 15.6524 215.952 17.1747 215.952 18.956H217.952C217.952 17.4733 218.312 16.5236 218.868 15.934L217.413 14.562ZM215.952 18.956C215.952 20.7132 216.372 22.2206 217.357 23.3284L218.852 21.9996C218.301 21.3794 217.952 20.4148 217.952 18.956H215.952ZM217.367 23.3397C218.349 24.4111 219.601 24.96 221.056 24.96V22.96C220.16 22.96 219.443 22.6449 218.842 21.9883L217.367 23.3397ZM250.35 23.78H251.35V22.78H250.35V23.78ZM250.35 29V30H251.35V29H250.35ZM241.998 27.38L241.336 28.129L241.344 28.1362L241.998 27.38ZM240.126 14.024H241.126V13.024H240.126V14.024ZM237.678 14.024H236.678V15.024H237.678V14.024ZM237.678 8.912V7.912H236.678V8.912H237.678ZM240.126 8.912V9.912H241.126V8.912H240.126ZM240.126 4.016V3.016H239.126V4.016H240.126ZM246.282 4.016H247.282V3.016H246.282V4.016ZM246.282 8.912H245.282V9.912H246.282V8.912ZM250.314 8.912H251.314V7.912H250.314V8.912ZM250.314 14.024V15.024H251.314V14.024H250.314ZM246.282 14.024V13.024H245.282V14.024H246.282ZM246.714 23.384L246.039 24.1212L246.039 24.1212L246.714 23.384ZM249.35 23.78V29H251.35V23.78H249.35ZM250.35 28H247.218V30H250.35V28ZM247.218 28C245.141 28 243.663 27.4986 242.653 26.6238L241.344 28.1362C242.829 29.4214 244.831 30 247.218 30V28ZM242.661 26.631C241.714 25.7933 241.126 24.3417 241.126 22.016H239.126C239.126 24.6343 239.787 26.7587 241.336 28.129L242.661 26.631ZM241.126 22.016V14.024H239.126V22.016H241.126ZM240.126 13.024H237.678V15.024H240.126V13.024ZM238.678 14.024V8.912H236.678V14.024H238.678ZM237.678 9.912H240.126V7.912H237.678V9.912ZM241.126 8.912V4.016H239.126V8.912H241.126ZM240.126 5.016H246.282V3.016H240.126V5.016ZM245.282 4.016V8.912H247.282V4.016H245.282ZM246.282 9.912H250.314V7.912H246.282V9.912ZM249.314 8.912V14.024H251.314V8.912H249.314ZM250.314 13.024H246.282V15.024H250.314V13.024ZM245.282 14.024V22.088H247.282V14.024H245.282ZM245.282 22.088C245.282 22.8193 245.455 23.5863 246.039 24.1212L247.39 22.6468C247.388 22.6454 247.383 22.6404 247.375 22.6271C247.366 22.6133 247.353 22.5879 247.339 22.5458C247.31 22.4583 247.282 22.3126 247.282 22.088H245.282ZM246.039 24.1212C246.605 24.6402 247.398 24.78 248.154 24.78V22.78C247.567 22.78 247.4 22.6558 247.39 22.6468L246.039 24.1212ZM248.154 24.78H250.35V22.78H248.154V24.78ZM258.531 5.888L257.837 6.60784L257.85 6.62045L257.864 6.63257L258.531 5.888ZM258.531 1.136L259.212 1.86879L259.213 1.86789L258.531 1.136ZM263.787 1.136L263.093 1.85584L263.106 1.86845L263.12 1.88057L263.787 1.136ZM263.787 5.888L264.468 6.62079L264.469 6.61989L263.787 5.888ZM264.255 8.912H265.255V7.912H264.255V8.912ZM264.255 29V30H265.255V29H264.255ZM258.099 29H257.099V30H258.099V29ZM258.099 8.912V7.912H257.099V8.912H258.099ZM261.195 5.824C260.321 5.824 259.683 5.57763 259.199 5.14343L257.864 6.63257C258.771 7.44637 259.91 7.824 261.195 7.824V5.824ZM259.225 5.16816C258.749 4.70919 258.523 4.17729 258.523 3.512H256.523C256.523 4.71871 256.969 5.77081 257.837 6.60784L259.225 5.16816ZM258.523 3.512C258.523 2.81538 258.754 2.29381 259.212 1.86879L257.851 0.403205C256.965 1.22618 256.523 2.28861 256.523 3.512H258.523ZM259.213 1.86789C259.698 1.41583 260.331 1.164 261.195 1.164V-0.836002C259.899 -0.836002 258.756 -0.43983 257.85 0.404104L259.213 1.86789ZM261.195 1.164C262.029 1.164 262.632 1.41159 263.093 1.85584L264.481 0.416154C263.598 -0.435598 262.473 -0.836002 261.195 -0.836002V1.164ZM263.12 1.88057C263.598 2.30913 263.831 2.82741 263.831 3.512H265.831C265.831 2.27659 265.369 1.21087 264.455 0.391429L263.12 1.88057ZM263.831 3.512C263.831 4.16539 263.602 4.69384 263.106 5.15611L264.469 6.61989C265.364 5.78616 265.831 4.73061 265.831 3.512H263.831ZM263.107 5.15521C262.648 5.58145 262.04 5.824 261.195 5.824V7.824C262.463 7.824 263.583 7.44254 264.468 6.62079L263.107 5.15521ZM263.255 8.912V29H265.255V8.912H263.255ZM264.255 28H258.099V30H264.255V28ZM259.099 29V8.912H257.099V29H259.099ZM258.099 9.912H264.255V7.912H258.099V9.912ZM283.116 14.024V15.024H284.116V14.024H283.116ZM279.804 14.024V13.024H278.804V14.024H279.804ZM279.804 29V30H280.804V29H279.804ZM273.648 29H272.648V30H273.648V29ZM273.648 14.024H274.648V13.024H273.648V14.024ZM271.416 14.024H270.416V15.024H271.416V14.024ZM271.416 8.912V7.912H270.416V8.912H271.416ZM273.648 8.912V9.912H274.648V8.912H273.648ZM275.772 2.72L276.441 3.46395L276.448 3.45767L275.772 2.72ZM283.008 0.811998H284.008V-0.083046L283.119 -0.181886L283.008 0.811998ZM283.008 6.032L282.947 7.03013L284.008 7.0951V6.032H283.008ZM280.524 6.536L281.172 7.29794L281.172 7.29794L280.524 6.536ZM279.804 8.912H278.804V9.912H279.804V8.912ZM283.116 8.912H284.116V7.912H283.116V8.912ZM283.116 13.024H279.804V15.024H283.116V13.024ZM278.804 14.024V29H280.804V14.024H278.804ZM279.804 28H273.648V30H279.804V28ZM274.648 29V14.024H272.648V29H274.648ZM273.648 13.024H271.416V15.024H273.648V13.024ZM272.416 14.024V8.912H270.416V14.024H272.416ZM271.416 9.912H273.648V7.912H271.416V9.912ZM274.648 8.912V8.336H272.648V8.912H274.648ZM274.648 8.336C274.648 6.05788 275.295 4.49348 276.441 3.46392L275.104 1.97608C273.418 3.49051 272.648 5.67012 272.648 8.336H274.648ZM276.448 3.45767C277.614 2.39032 279.409 1.776 282 1.776V-0.224001C279.12 -0.224001 276.763 0.457682 275.097 1.98233L276.448 3.45767ZM282 1.776C282.45 1.776 282.74 1.78834 282.898 1.80588L283.119 -0.181886C282.845 -0.212341 282.463 -0.224001 282 -0.224001V1.776ZM282.008 0.811998V6.032H284.008V0.811998H282.008ZM283.07 5.03387C281.836 4.95833 280.666 5.10294 279.877 5.77406L281.172 7.29794C281.343 7.15306 281.829 6.96167 282.947 7.03013L283.07 5.03387ZM279.877 5.77406C279.06 6.46858 278.804 7.5746 278.804 8.732H280.804C280.804 7.7774 281.029 7.41942 281.172 7.29794L279.877 5.77406ZM278.804 8.732V8.912H280.804V8.732H278.804ZM279.804 9.912H283.116V7.912H279.804V9.912ZM282.116 8.912V14.024H284.116V8.912H282.116ZM310.849 8.912L311.769 9.30335L312.361 7.912H310.849V8.912ZM298.249 38.54V39.54H298.911L299.169 38.9314L298.249 38.54ZM291.625 38.54L290.713 38.1291L290.078 39.54H291.625V38.54ZM296.233 28.316L297.145 28.7269L297.324 28.3295L297.155 27.9279L296.233 28.316ZM288.061 8.912V7.912H286.555L287.14 9.30013L288.061 8.912ZM294.937 8.912L295.875 8.5653L295.634 7.912H294.937V8.912ZM299.581 21.476L298.643 21.8227L299.585 24.3702L300.52 21.8203L299.581 21.476ZM304.189 8.912V7.912H303.491L303.25 8.56767L304.189 8.912ZM309.929 8.52065L297.329 38.1486L299.169 38.9314L311.769 9.30335L309.929 8.52065ZM298.249 37.54H291.625V39.54H298.249V37.54ZM292.537 38.9509L297.145 28.7269L295.321 27.9051L290.713 38.1291L292.537 38.9509ZM297.155 27.9279L288.983 8.52387L287.14 9.30013L295.312 28.7041L297.155 27.9279ZM288.061 9.912H294.937V7.912H288.061V9.912ZM293.999 9.2587L298.643 21.8227L300.519 21.1293L295.875 8.5653L293.999 9.2587ZM300.52 21.8203L305.128 9.25633L303.25 8.56767L298.642 21.1317L300.52 21.8203ZM304.189 9.912H310.849V7.912H304.189V9.912ZM323.551 11.756H322.551V15.289L324.403 12.2801L323.551 11.756ZM326.035 9.488L325.565 8.60565L325.565 8.60565L326.035 9.488ZM334.243 9.884L333.713 10.732L333.713 10.732L334.243 9.884ZM337.411 13.484L336.514 13.9257L336.52 13.9367L337.411 13.484ZM337.411 24.392L336.517 23.9448L336.514 23.9503L337.411 24.392ZM334.243 28.028L334.773 28.8761L334.784 28.8692L334.243 28.028ZM326.035 28.46L325.556 29.3379L325.564 29.3421L325.572 29.3462L326.035 28.46ZM323.551 26.192L324.393 25.6523L322.551 22.779V26.192H323.551ZM323.551 29V30H324.551V29H323.551ZM317.395 29H316.395V30H317.395V29ZM317.395 2.36V1.36H316.395V2.36H317.395ZM323.551 2.36H324.551V1.36H323.551V2.36ZM331.039 15.32L330.313 16.0072L330.322 16.0173L330.332 16.0271L331.039 15.32ZM324.775 15.32L324.058 14.6226L324.049 14.6328L324.775 15.32ZM324.775 22.592L324.049 23.2793L324.059 23.2894L324.775 22.592ZM331.039 22.592L331.756 23.2894L331.765 23.2797L331.039 22.592ZM324.403 12.2801C324.876 11.5119 325.564 10.8726 326.506 10.3704L325.565 8.60565C324.346 9.25541 323.379 10.1281 322.7 11.2319L324.403 12.2801ZM326.506 10.3704C327.422 9.88164 328.493 9.624 329.743 9.624V7.624C328.21 7.624 326.808 7.94235 325.565 8.60565L326.506 10.3704ZM329.743 9.624C331.221 9.624 332.535 9.9959 333.713 10.732L334.773 9.036C333.263 8.09209 331.578 7.624 329.743 7.624V9.624ZM333.713 10.732C334.884 11.4639 335.82 12.5159 336.514 13.9257L338.308 13.0423C337.466 11.3321 336.29 9.9841 334.773 9.036L333.713 10.732ZM336.52 13.9367C337.229 15.3333 337.599 16.9852 337.599 18.92H339.599C339.599 16.7268 339.178 14.7547 338.303 13.0313L336.52 13.9367ZM337.599 18.92C337.599 20.8544 337.229 22.5209 336.517 23.9448L338.306 24.8392C339.178 23.0951 339.599 21.1136 339.599 18.92H337.599ZM336.514 23.9503C335.819 25.3621 334.88 26.4297 333.702 27.1868L334.784 28.8692C336.294 27.8983 337.467 26.5419 338.308 24.8337L336.514 23.9503ZM333.713 27.18C332.535 27.9161 331.221 28.288 329.743 28.288V30.288C331.578 30.288 333.263 29.8199 334.773 28.876L333.713 27.18ZM329.743 28.288C328.458 28.288 327.387 28.0382 326.498 27.5738L325.572 29.3462C326.796 29.9858 328.196 30.288 329.743 30.288V28.288ZM326.514 27.5821C325.593 27.0798 324.895 26.4354 324.393 25.6523L322.709 26.7317C323.407 27.8206 324.365 28.6882 325.556 29.3379L326.514 27.5821ZM322.551 26.192V29H324.551V26.192H322.551ZM323.551 28H317.395V30H323.551V28ZM318.395 29V2.36H316.395V29H318.395ZM317.395 3.36H323.551V1.36H317.395V3.36ZM322.551 2.36V11.756H324.551V2.36H322.551ZM333.335 18.92C333.335 17.1907 332.843 15.7098 331.746 14.6129L330.332 16.0271C330.963 16.6582 331.335 17.5773 331.335 18.92H333.335ZM331.766 14.6328C330.732 13.5404 329.424 12.988 327.907 12.988V14.988C328.887 14.988 329.666 15.3236 330.313 16.0072L331.766 14.6328ZM327.907 12.988C326.41 12.988 325.108 13.5438 324.059 14.6226L325.492 16.0174C326.17 15.3202 326.957 14.988 327.907 14.988V12.988ZM324.049 14.6328C322.991 15.7509 322.515 17.233 322.515 18.956H324.515C324.515 17.607 324.879 16.6651 325.502 16.0072L324.049 14.6328ZM322.515 18.956C322.515 20.679 322.991 22.1611 324.049 23.2792L325.502 21.9048C324.879 21.2469 324.515 20.305 324.515 18.956H322.515ZM324.059 23.2894C325.108 24.3682 326.41 24.924 327.907 24.924V22.924C326.957 22.924 326.17 22.5918 325.492 21.8946L324.059 23.2894ZM327.907 24.924C329.405 24.924 330.706 24.3682 331.756 23.2894L330.323 21.8946C329.644 22.5918 328.858 22.924 327.907 22.924V24.924ZM331.765 23.2797C332.843 22.1425 333.335 20.6518 333.335 18.92H331.335C331.335 20.2602 330.964 21.2175 330.313 21.9043L331.765 23.2797ZM364.977 20.432V21.432H365.868L365.97 20.5466L364.977 20.432ZM351.045 20.432V19.432H349.965L350.048 20.5087L351.045 20.432ZM352.233 23.312L351.538 24.0314L351.551 24.0436L351.564 24.0553L352.233 23.312ZM358.065 22.34V21.34H357.426L357.157 21.9199L358.065 22.34ZM364.617 22.34L365.586 22.5867L365.903 21.34H364.617V22.34ZM362.781 25.904L362.015 25.2603L362.007 25.2708L362.781 25.904ZM359.505 28.388L359.919 29.2984L359.505 28.388ZM349.821 28.028L349.341 28.9054L349.341 28.9054L349.821 28.028ZM346.221 24.428L347.096 23.9435L347.096 23.9435L346.221 24.428ZM346.185 13.484L345.31 12.9995L345.304 13.0099L346.185 13.484ZM349.785 9.884L350.265 10.7614L350.265 10.7614L349.785 9.884ZM360.261 9.848L359.786 10.728L359.786 10.728L360.261 9.848ZM363.789 13.34L362.915 13.8257L362.921 13.8361L363.789 13.34ZM358.785 17.012V18.012H359.785V17.012H358.785ZM357.705 14.492L358.36 13.7363L358.36 13.7363L357.705 14.492ZM352.377 14.456L351.737 13.6878L351.73 13.6931L351.724 13.6986L352.377 14.456ZM351.081 17.012L350.092 16.8616L349.917 18.012H351.081V17.012ZM364.085 18.632C364.085 19.1664 364.051 19.7281 363.983 20.3174L365.97 20.5466C366.046 19.8879 366.085 19.2496 366.085 18.632H364.085ZM364.977 19.432H351.045V21.432H364.977V19.432ZM350.048 20.5087C350.157 21.9272 350.619 23.1443 351.538 24.0314L352.927 22.5926C352.454 22.1357 352.125 21.4328 352.042 20.3553L350.048 20.5087ZM351.564 24.0553C352.48 24.88 353.599 25.284 354.861 25.284V23.284C354.058 23.284 353.425 23.04 352.902 22.5687L351.564 24.0553ZM354.861 25.284C355.77 25.284 356.61 25.0914 357.333 24.6529C358.06 24.2116 358.601 23.5618 358.972 22.7601L357.157 21.9199C356.929 22.4142 356.636 22.7364 356.295 22.9431C355.95 23.1526 355.488 23.284 354.861 23.284V25.284ZM358.065 23.34H364.617V21.34H358.065V23.34ZM363.648 22.0933C363.349 23.2654 362.808 24.3181 362.015 25.2604L363.546 26.5476C364.53 25.3779 365.212 24.0546 365.586 22.5867L363.648 22.0933ZM362.007 25.2708C361.246 26.2006 360.28 26.9371 359.091 27.4776L359.919 29.2984C361.369 28.6389 362.588 27.7194 363.555 26.5372L362.007 25.2708ZM359.091 27.4776C357.916 28.0116 356.584 28.288 355.077 28.288V30.288C356.834 30.288 358.453 29.9644 359.919 29.2984L359.091 27.4776ZM355.077 28.288C353.255 28.288 351.672 27.9006 350.301 27.1506L349.341 28.9054C351.042 29.8354 352.962 30.288 355.077 30.288V28.288ZM350.301 27.1506C348.934 26.4033 347.87 25.341 347.096 23.9435L345.346 24.9125C346.3 26.635 347.636 27.9727 349.341 28.9054L350.301 27.1506ZM347.096 23.9435C346.327 22.5553 345.925 20.9036 345.925 18.956H343.925C343.925 21.1844 344.387 23.1807 345.346 24.9125L347.096 23.9435ZM345.925 18.956C345.925 17.0039 346.317 15.3484 347.065 13.9581L345.304 13.0099C344.373 14.7396 343.925 16.7321 343.925 18.956H345.925ZM347.06 13.9685C347.834 12.571 348.898 11.5087 350.265 10.7614L349.305 9.00663C347.6 9.9393 346.264 11.277 345.31 12.9995L347.06 13.9685ZM350.265 10.7614C351.634 10.0124 353.229 9.624 355.077 9.624V7.624C352.941 7.624 351.007 8.07564 349.305 9.00663L350.265 10.7614ZM355.077 9.624C356.877 9.624 358.438 10.0006 359.786 10.728L360.736 8.96798C359.06 8.06337 357.165 7.624 355.077 7.624V9.624ZM359.786 10.728C361.129 11.4527 362.167 12.4793 362.915 13.8256L364.663 12.8544C363.731 11.1767 362.417 9.87528 360.736 8.96798L359.786 10.728ZM362.921 13.8361C363.685 15.1747 364.085 16.7623 364.085 18.632H366.085C366.085 16.4697 365.62 14.5293 364.657 12.8439L362.921 13.8361ZM359.785 17.012C359.785 15.7013 359.324 14.5722 358.36 13.7363L357.05 15.2477C357.525 15.6598 357.785 16.2107 357.785 17.012H359.785ZM358.36 13.7363C357.434 12.9337 356.291 12.556 355.005 12.556V14.556C355.878 14.556 356.536 14.8023 357.05 15.2477L358.36 13.7363ZM355.005 12.556C353.764 12.556 352.655 12.9226 351.737 13.6878L353.017 15.2242C353.539 14.7894 354.181 14.556 355.005 14.556V12.556ZM351.724 13.6986C350.81 14.4861 350.288 15.5746 350.092 16.8616L352.069 17.1624C352.21 16.2414 352.551 15.6259 353.03 15.2134L351.724 13.6986ZM351.081 18.012H358.785V16.012H351.081V18.012ZM372.58 13.484L371.689 13.0313L371.683 13.0423L372.58 13.484ZM375.784 9.884L376.314 10.732L376.314 10.732L375.784 9.884ZM383.992 9.488L383.514 10.3659L383.522 10.3704L383.992 9.488ZM386.476 11.756L385.625 12.2801L387.476 15.289V11.756H386.476ZM386.476 8.912V7.912H385.476V8.912H386.476ZM392.632 8.912H393.632V7.912H392.632V8.912ZM392.632 29V30H393.632V29H392.632ZM386.476 29H385.476V30H386.476V29ZM386.476 26.156H387.476V22.743L385.635 25.6163L386.476 26.156ZM383.956 28.424L383.486 27.5416L383.478 27.5461L383.956 28.424ZM375.784 28.028L375.244 28.8692L375.254 28.876L375.784 28.028ZM372.58 24.392L371.681 24.8283L371.685 24.8365L371.689 24.8447L372.58 24.392ZM385.18 15.32L384.454 16.0073L384.464 16.0174L385.18 15.32ZM378.952 15.32L378.236 14.6226L378.235 14.6229L378.952 15.32ZM378.952 22.592L378.217 23.2695L378.226 23.2795L378.236 23.2894L378.952 22.592ZM385.18 22.592L384.464 21.8946L384.454 21.9048L385.18 22.592ZM372.428 18.92C372.428 16.9807 372.789 15.3249 373.478 13.9257L371.683 13.0423C370.836 14.7631 370.428 16.7313 370.428 18.92H372.428ZM373.472 13.9367C374.191 12.5215 375.14 11.4658 376.314 10.732L375.254 9.036C373.74 9.98224 372.554 11.3265 371.689 13.0313L373.472 13.9367ZM376.314 10.732C377.492 9.9959 378.807 9.624 380.284 9.624V7.624C378.45 7.624 376.765 8.09209 375.254 9.036L376.314 10.732ZM380.284 9.624C381.563 9.624 382.628 9.88313 383.514 10.3659L384.471 8.6101C383.244 7.94087 381.838 7.624 380.284 7.624V9.624ZM383.522 10.3704C384.464 10.8726 385.152 11.5119 385.625 12.2801L387.328 11.2319C386.649 10.1281 385.681 9.25541 384.463 8.60565L383.522 10.3704ZM387.476 11.756V8.912H385.476V11.756H387.476ZM386.476 9.912H392.632V7.912H386.476V9.912ZM391.632 8.912V29H393.632V8.912H391.632ZM392.632 28H386.476V30H392.632V28ZM387.476 29V26.156H385.476V29H387.476ZM385.635 25.6163C385.136 26.394 384.43 27.0379 383.486 27.5416L384.427 29.3064C385.642 28.6581 386.617 27.79 387.318 26.6957L385.635 25.6163ZM383.478 27.5461C382.592 28.0289 381.527 28.288 380.248 28.288V30.288C381.802 30.288 383.208 29.9711 384.435 29.3019L383.478 27.5461ZM380.248 28.288C378.798 28.288 377.495 27.9176 376.314 27.18L375.254 28.876C376.762 29.8184 378.435 30.288 380.248 30.288V28.288ZM376.325 27.1868C375.145 26.4278 374.192 25.3564 373.472 23.9393L371.689 24.8447C372.553 26.5476 373.736 27.9002 375.244 28.8692L376.325 27.1868ZM373.48 23.9557C372.789 22.5293 372.428 20.8588 372.428 18.92H370.428C370.428 21.1092 370.836 23.0867 371.681 24.8283L373.48 23.9557ZM387.476 18.956C387.476 17.2254 386.984 15.7397 385.897 14.6226L384.464 16.0174C385.105 16.6763 385.476 17.6146 385.476 18.956H387.476ZM385.907 14.6328C384.878 13.5448 383.583 12.988 382.084 12.988V14.988C383.034 14.988 383.803 15.3192 384.454 16.0072L385.907 14.6328ZM382.084 12.988C380.587 12.988 379.285 13.5438 378.236 14.6226L379.669 16.0174C380.347 15.3202 381.134 14.988 382.084 14.988V12.988ZM378.235 14.6229C377.168 15.7211 376.692 17.1984 376.692 18.92H378.692C378.692 17.5696 379.057 16.6469 379.669 16.0171L378.235 14.6229ZM376.692 18.92C376.692 20.6443 377.169 22.1314 378.217 23.2695L379.688 21.9145C379.056 21.2286 378.692 20.2677 378.692 18.92H376.692ZM378.236 23.2894C379.285 24.3682 380.587 24.924 382.084 24.924V22.924C381.134 22.924 380.347 22.5918 379.669 21.8946L378.236 23.2894ZM382.084 24.924C383.583 24.924 384.878 24.3672 385.907 23.2792L384.454 21.9048C383.803 22.5928 383.034 22.924 382.084 22.924V24.924ZM385.897 23.2894C386.984 22.1723 387.476 20.6866 387.476 18.956H385.476C385.476 20.2974 385.105 21.2357 384.464 21.8946L385.897 23.2894ZM407.562 12.26H406.562V15.6239L408.4 12.8063L407.562 12.26ZM410.262 9.668L410.762 10.5339L410.769 10.5297L410.777 10.5255L410.262 9.668ZM413.862 8.696H414.862V7.696H413.862V8.696ZM413.862 15.212V16.212H414.862V15.212H413.862ZM408.714 16.22L409.359 16.9843L409.366 16.9785L409.373 16.9726L408.714 16.22ZM407.562 29V30H408.562V29H407.562ZM401.406 29H400.406V30H401.406V29ZM401.406 8.912V7.912H400.406V8.912H401.406ZM407.562 8.912H408.562V7.912H407.562V8.912ZM408.4 12.8063C409.039 11.8261 409.826 11.0748 410.762 10.5339L409.762 8.80213C408.538 9.50915 407.525 10.4859 406.724 11.7137L408.4 12.8063ZM410.777 10.5255C411.693 9.97531 412.714 9.696 413.862 9.696V7.696C412.37 7.696 410.991 8.06469 409.748 8.81051L410.777 10.5255ZM412.862 8.696V15.212H414.862V8.696H412.862ZM413.862 14.212H412.17V16.212H413.862V14.212ZM412.17 14.212C410.51 14.212 409.079 14.5722 408.056 15.4674L409.373 16.9726C409.885 16.5238 410.758 16.212 412.17 16.212V14.212ZM408.069 15.4557C406.964 16.3878 406.562 17.9117 406.562 19.676H408.562C408.562 18.1283 408.928 17.3482 409.359 16.9843L408.069 15.4557ZM406.562 19.676V29H408.562V19.676H406.562ZM407.562 28H401.406V30H407.562V28ZM402.406 29V8.912H400.406V29H402.406ZM401.406 9.912H407.562V7.912H401.406V9.912ZM406.562 8.912V12.26H408.562V8.912H406.562ZM434.66 4.34L434.002 5.0926L434.008 5.09761L434.66 4.34ZM434.768 15.32L435.417 16.081L435.418 16.0801L434.768 15.32ZM428.936 17.228L428.927 16.228L428 16.2372L427.939 17.1615L428.936 17.228ZM428.756 19.928V20.928H429.692L429.754 19.9945L428.756 19.928ZM423.356 19.928L422.357 19.9549L422.383 20.928H423.356V19.928ZM423.176 13.232V12.232H422.149L422.177 13.2589L423.176 13.232ZM429.548 12.548L429.128 11.6406L429.119 11.6447L429.548 12.548ZM426.416 8.12L427.124 8.8271L427.132 8.81848L427.141 8.80965L426.416 8.12ZM425.696 10.1V11.1H426.696V10.1H425.696ZM419.9 10.1L418.901 10.1328L418.933 11.1H419.9V10.1ZM420.8 6.14L419.932 5.64386L419.928 5.6506L419.925 5.65739L420.8 6.14ZM423.752 3.368L424.213 4.25578L424.219 4.25257L423.752 3.368ZM423.464 28.352L422.77 29.0718L422.783 29.0844L422.797 29.0966L423.464 28.352ZM423.464 23.564L422.783 22.8321L422.777 22.8381L422.77 22.8442L423.464 23.564ZM428.72 23.564L428.026 24.2838L428.033 24.2899L428.039 24.2959L428.72 23.564ZM428.72 28.352L429.401 29.0848L429.402 29.0839L428.72 28.352ZM428.504 3.324C430.895 3.324 432.692 3.94604 434.002 5.09257L435.319 3.58742C433.557 2.04596 431.25 1.324 428.504 1.324V3.324ZM434.008 5.09761C435.305 6.21544 436 7.81057 436 10.028H438C438 7.34943 437.136 5.15256 435.313 3.58239L434.008 5.09761ZM436 10.028C436 12.0412 435.349 13.5079 434.119 14.5599L435.418 16.0801C437.164 14.5881 438 12.5268 438 10.028H436ZM434.12 14.559C432.877 15.6188 431.179 16.2057 428.927 16.228L428.946 18.228C431.542 18.2022 433.732 17.5172 435.417 16.081L434.12 14.559ZM427.939 17.1615L427.759 19.8615L429.754 19.9945L429.934 17.2945L427.939 17.1615ZM428.756 18.928H423.356V20.928H428.756V18.928ZM424.356 19.9011L424.176 13.2051L422.177 13.2589L422.357 19.9549L424.356 19.9011ZM423.176 14.232H425.336V12.232H423.176V14.232ZM425.336 14.232C427.239 14.232 428.819 14.0018 429.978 13.4513L429.119 11.6447C428.358 12.0062 427.13 12.232 425.336 12.232V14.232ZM429.969 13.4553C430.62 13.1536 431.153 12.7046 431.515 12.0958C431.873 11.4935 432.024 10.7999 432.024 10.064H430.024C430.024 10.5281 429.93 10.8485 429.796 11.0742C429.666 11.2934 429.461 11.4864 429.128 11.6407L429.969 13.4553ZM432.024 10.064C432.024 9.0395 431.742 8.10736 431.065 7.39525L429.615 8.77275C429.851 9.02063 430.024 9.4085 430.024 10.064H432.024ZM431.065 7.39525C430.378 6.67198 429.454 6.364 428.432 6.364V8.364C429.043 8.364 429.391 8.53602 429.615 8.77275L431.065 7.39525ZM428.432 6.364C427.365 6.364 426.405 6.68234 425.692 7.43034L427.141 8.80965C427.388 8.54966 427.772 8.364 428.432 8.364V6.364ZM425.709 7.41289C424.999 8.12287 424.696 9.06152 424.696 10.1H426.696C426.696 9.45848 426.874 9.07713 427.124 8.8271L425.709 7.41289ZM425.696 9.1H419.9V11.1H425.696V9.1ZM420.9 10.0672C420.857 8.76614 421.123 7.6269 421.676 6.6226L419.925 5.65739C419.182 7.0051 418.848 8.50586 418.901 10.1328L420.9 10.0672ZM421.669 6.63614C422.238 5.64028 423.074 4.84638 424.213 4.25575L423.292 2.48024C421.839 3.23362 420.707 4.28772 419.932 5.64386L421.669 6.63614ZM424.219 4.25257C425.365 3.64836 426.781 3.324 428.504 3.324V1.324C426.532 1.324 424.78 1.69564 423.286 2.48343L424.219 4.25257ZM426.128 28.288C425.254 28.288 424.616 28.0416 424.132 27.6074L422.797 29.0966C423.705 29.9104 424.843 30.288 426.128 30.288V28.288ZM424.159 27.6322C423.683 27.1732 423.456 26.6413 423.456 25.976H421.456C421.456 27.1827 421.902 28.2348 422.77 29.0718L424.159 27.6322ZM423.456 25.976C423.456 25.2789 423.688 24.7374 424.159 24.2838L422.77 22.8442C421.897 23.6866 421.456 24.7531 421.456 25.976H423.456ZM424.146 24.2959C424.631 23.8438 425.264 23.592 426.128 23.592V21.592C424.833 21.592 423.689 21.9882 422.783 22.8321L424.146 24.2959ZM426.128 23.592C426.962 23.592 427.566 23.8396 428.026 24.2838L429.415 22.8442C428.531 21.9924 427.407 21.592 426.128 21.592V23.592ZM428.039 24.2959C428.53 24.7527 428.764 25.2906 428.764 25.976H430.764C430.764 24.7414 430.303 23.6713 429.402 22.8321L428.039 24.2959ZM428.764 25.976C428.764 26.6294 428.536 27.1578 428.039 27.6201L429.402 29.0839C430.297 28.2502 430.764 27.1946 430.764 25.976H428.764ZM428.04 27.6192C427.581 28.0455 426.973 28.288 426.128 28.288V30.288C427.396 30.288 428.516 29.9065 429.401 29.0848L428.04 27.6192Z" fill="white" mask="url(#path-1-outside-1_3_235)"/>
</svg>
