<svg id="visual" viewBox="0 0 900 600" width="900" height="600" xmlns="http://www.w3.org/2000/svg" xmlns:xlink="http://www.w3.org/1999/xlink" version="1.1"><path d="M0 67L82 67L82 61L164 61L164 139L245 139L245 67L327 67L327 73L409 73L409 61L491 61L491 61L573 61L573 121L655 121L655 103L736 103L736 109L818 109L818 97L900 97L900 73L900 0L900 0L818 0L818 0L736 0L736 0L655 0L655 0L573 0L573 0L491 0L491 0L409 0L409 0L327 0L327 0L245 0L245 0L164 0L164 0L82 0L82 0L0 0Z" fill="#fa7268"></path><path d="M0 283L82 283L82 163L164 163L164 211L245 211L245 193L327 193L327 283L409 283L409 289L491 289L491 259L573 259L573 361L655 361L655 217L736 217L736 373L818 373L818 295L900 295L900 211L900 71L900 95L818 95L818 107L736 107L736 101L655 101L655 119L573 119L573 59L491 59L491 59L409 59L409 71L327 71L327 65L245 65L245 137L164 137L164 59L82 59L82 65L0 65Z" fill="#ea5e66"></path><path d="M0 361L82 361L82 283L164 283L164 313L245 313L245 289L327 289L327 325L409 325L409 385L491 385L491 307L573 307L573 415L655 415L655 301L736 301L736 451L818 451L818 367L900 367L900 253L900 209L900 293L818 293L818 371L736 371L736 215L655 215L655 359L573 359L573 257L491 257L491 287L409 287L409 281L327 281L327 191L245 191L245 209L164 209L164 161L82 161L82 281L0 281Z" fill="#d84a64"></path><path d="M0 535L82 535L82 535L164 535L164 511L245 511L245 517L327 517L327 517L409 517L409 523L491 523L491 505L573 505L573 565L655 565L655 499L736 499L736 553L818 553L818 529L900 529L900 565L900 251L900 365L818 365L818 449L736 449L736 299L655 299L655 413L573 413L573 305L491 305L491 383L409 383L409 323L327 323L327 287L245 287L245 311L164 311L164 281L82 281L82 359L0 359Z" fill="#c53762"></path><path d="M0 601L82 601L82 601L164 601L164 601L245 601L245 601L327 601L327 601L409 601L409 601L491 601L491 601L573 601L573 601L655 601L655 601L736 601L736 601L818 601L818 601L900 601L900 601L900 563L900 527L818 527L818 551L736 551L736 497L655 497L655 563L573 563L573 503L491 503L491 521L409 521L409 515L327 515L327 515L245 515L245 509L164 509L164 533L82 533L82 533L0 533Z" fill="#b0235f"></path></svg>