<svg width="499" height="33" viewBox="0 0 499 33" fill="none" xmlns="http://www.w3.org/2000/svg">
<mask id="path-1-outside-1_1_194" maskUnits="userSpaceOnUse" x="-1" y="-1" width="502" height="35" fill="black">
<rect fill="white" x="-1" y="-1" width="502" height="35"/>
<path d="M0.452 16.512C0.452 13.4613 1.112 10.748 2.432 8.372C3.752 5.96667 5.58533 4.104 7.932 2.784C10.308 1.43467 12.992 0.759998 15.984 0.759998C19.6507 0.759998 22.7893 1.728 25.4 3.664C28.0107 5.6 29.756 8.24 30.636 11.584H22.364C21.748 10.2933 20.868 9.31067 19.724 8.636C18.6093 7.96133 17.3333 7.624 15.896 7.624C13.5787 7.624 11.7013 8.43067 10.264 10.044C8.82667 11.6573 8.108 13.8133 8.108 16.512C8.108 19.2107 8.82667 21.3667 10.264 22.98C11.7013 24.5933 13.5787 25.4 15.896 25.4C17.3333 25.4 18.6093 25.0627 19.724 24.388C20.868 23.7133 21.748 22.7307 22.364 21.44H30.636C29.756 24.784 28.0107 27.424 25.4 29.36C22.7893 31.2667 19.6507 32.22 15.984 32.22C12.992 32.22 10.308 31.56 7.932 30.24C5.58533 28.8907 3.752 27.028 2.432 24.652C1.112 22.276 0.452 19.5627 0.452 16.512ZM67.4516 32.308C64.5476 32.308 61.8783 31.6333 59.4436 30.284C57.0383 28.9347 55.117 27.0573 53.6796 24.652C52.2716 22.2173 51.5676 19.4893 51.5676 16.468C51.5676 13.4467 52.2716 10.7333 53.6796 8.328C55.117 5.92267 57.0383 4.04533 59.4436 2.696C61.8783 1.34667 64.5476 0.671999 67.4516 0.671999C70.3556 0.671999 73.0103 1.34667 75.4156 2.696C77.8503 4.04533 79.757 5.92267 81.1356 8.328C82.5436 10.7333 83.2476 13.4467 83.2476 16.468C83.2476 19.4893 82.5436 22.2173 81.1356 24.652C79.7276 27.0573 77.821 28.9347 75.4156 30.284C73.0103 31.6333 70.3556 32.308 67.4516 32.308ZM67.4516 25.444C69.9156 25.444 71.881 24.6227 73.3476 22.98C74.8436 21.3373 75.5916 19.1667 75.5916 16.468C75.5916 13.74 74.8436 11.5693 73.3476 9.956C71.881 8.31333 69.9156 7.492 67.4516 7.492C64.9583 7.492 62.9636 8.29866 61.4676 9.912C60.001 11.5253 59.2676 13.7107 59.2676 16.468C59.2676 19.196 60.001 21.3813 61.4676 23.024C62.9636 24.6373 64.9583 25.444 67.4516 25.444ZM140.013 1.112V32H132.489V13.476L125.581 32H119.509L112.557 13.432V32H105.033V1.112H113.921L122.589 22.496L131.169 1.112H140.013ZM170.548 1.112V32H163.024V1.112H170.548ZM221.233 32H213.709L201.125 12.948V32H193.601V1.112H201.125L213.709 20.252V1.112H221.233V32ZM264.791 10.88C264.233 9.85333 263.427 9.076 262.371 8.548C261.344 7.99066 260.127 7.712 258.719 7.712C256.284 7.712 254.333 8.51867 252.867 10.132C251.4 11.716 250.667 13.8427 250.667 16.512C250.667 19.3573 251.429 21.5867 252.955 23.2C254.509 24.784 256.636 25.576 259.335 25.576C261.183 25.576 262.737 25.1067 263.999 24.168C265.289 23.2293 266.228 21.88 266.815 20.12H257.267V14.576H273.635V21.572C273.077 23.4493 272.124 25.1947 270.775 26.808C269.455 28.4213 267.768 29.7267 265.715 30.724C263.661 31.7213 261.344 32.22 258.763 32.22C255.712 32.22 252.984 31.56 250.579 30.24C248.203 28.8907 246.34 27.028 244.991 24.652C243.671 22.276 243.011 19.5627 243.011 16.512C243.011 13.4613 243.671 10.748 244.991 8.372C246.34 5.96667 248.203 4.104 250.579 2.784C252.955 1.43467 255.668 0.759998 258.719 0.759998C262.415 0.759998 265.524 1.65466 268.047 3.444C270.599 5.23333 272.285 7.712 273.107 10.88H264.791ZM333.502 32.308C331.244 32.308 329.22 31.9413 327.43 31.208C325.641 30.4747 324.204 29.3893 323.118 27.952C322.062 26.5147 321.505 24.784 321.446 22.76H329.454C329.572 23.904 329.968 24.784 330.642 25.4C331.317 25.9867 332.197 26.28 333.282 26.28C334.397 26.28 335.277 26.0307 335.922 25.532C336.568 25.004 336.89 24.2853 336.89 23.376C336.89 22.6133 336.626 21.9827 336.098 21.484C335.6 20.9853 334.969 20.5747 334.206 20.252C333.473 19.9293 332.417 19.5627 331.038 19.152C329.044 18.536 327.416 17.92 326.154 17.304C324.893 16.688 323.808 15.7787 322.898 14.576C321.989 13.3733 321.534 11.804 321.534 9.868C321.534 6.99333 322.576 4.74933 324.658 3.136C326.741 1.49333 329.454 0.671999 332.798 0.671999C336.201 0.671999 338.944 1.49333 341.026 3.136C343.109 4.74933 344.224 7.008 344.37 9.912H336.23C336.172 8.91467 335.805 8.13733 335.13 7.58C334.456 6.99333 333.59 6.7 332.534 6.7C331.625 6.7 330.892 6.94933 330.334 7.448C329.777 7.91733 329.498 8.60666 329.498 9.516C329.498 10.5133 329.968 11.2907 330.906 11.848C331.845 12.4053 333.312 13.0067 335.306 13.652C337.301 14.3267 338.914 14.972 340.146 15.588C341.408 16.204 342.493 17.0987 343.402 18.272C344.312 19.4453 344.766 20.956 344.766 22.804C344.766 24.564 344.312 26.1627 343.402 27.6C342.522 29.0373 341.232 30.1813 339.53 31.032C337.829 31.8827 335.82 32.308 333.502 32.308ZM381.605 32.308C378.701 32.308 376.031 31.6333 373.597 30.284C371.191 28.9347 369.27 27.0573 367.833 24.652C366.425 22.2173 365.721 19.4893 365.721 16.468C365.721 13.4467 366.425 10.7333 367.833 8.328C369.27 5.92267 371.191 4.04533 373.597 2.696C376.031 1.34667 378.701 0.671999 381.605 0.671999C384.509 0.671999 387.163 1.34667 389.569 2.696C392.003 4.04533 393.91 5.92267 395.289 8.328C396.697 10.7333 397.401 13.4467 397.401 16.468C397.401 19.4893 396.697 22.2173 395.289 24.652C393.881 27.0573 391.974 28.9347 389.569 30.284C387.163 31.6333 384.509 32.308 381.605 32.308ZM381.605 25.444C384.069 25.444 386.034 24.6227 387.501 22.98C388.997 21.3373 389.745 19.1667 389.745 16.468C389.745 13.74 388.997 11.5693 387.501 9.956C386.034 8.31333 384.069 7.492 381.605 7.492C379.111 7.492 377.117 8.29866 375.621 9.912C374.154 11.5253 373.421 13.7107 373.421 16.468C373.421 19.196 374.154 21.3813 375.621 23.024C377.117 24.6373 379.111 25.444 381.605 25.444ZM433.795 32.308C430.891 32.308 428.221 31.6333 425.787 30.284C423.381 28.9347 421.46 27.0573 420.023 24.652C418.615 22.2173 417.911 19.4893 417.911 16.468C417.911 13.4467 418.615 10.7333 420.023 8.328C421.46 5.92267 423.381 4.04533 425.787 2.696C428.221 1.34667 430.891 0.671999 433.795 0.671999C436.699 0.671999 439.353 1.34667 441.759 2.696C444.193 4.04533 446.1 5.92267 447.479 8.328C448.887 10.7333 449.591 13.4467 449.591 16.468C449.591 19.4893 448.887 22.2173 447.479 24.652C446.071 27.0573 444.164 28.9347 441.759 30.284C439.353 31.6333 436.699 32.308 433.795 32.308ZM433.795 25.444C436.259 25.444 438.224 24.6227 439.691 22.98C441.187 21.3373 441.935 19.1667 441.935 16.468C441.935 13.74 441.187 11.5693 439.691 9.956C438.224 8.31333 436.259 7.492 433.795 7.492C431.301 7.492 429.307 8.29866 427.811 9.912C426.344 11.5253 425.611 13.7107 425.611 16.468C425.611 19.196 426.344 21.3813 427.811 23.024C429.307 24.6373 431.301 25.444 433.795 25.444ZM499.008 32H491.484L478.9 12.948V32H471.376V1.112H478.9L491.484 20.252V1.112H499.008V32Z"/>
</mask>
<path d="M2.432 8.372L3.30617 8.85765L3.30867 8.8531L2.432 8.372ZM7.932 2.784L8.42227 3.65558L8.42583 3.65356L7.932 2.784ZM25.4 3.664L25.9957 2.86076L25.9957 2.86076L25.4 3.664ZM30.636 11.584V12.584H31.9332L31.6031 11.3295L30.636 11.584ZM22.364 11.584L21.4615 12.0147L21.7332 12.584H22.364V11.584ZM19.724 8.636L19.2062 9.49156L19.216 9.49737L19.724 8.636ZM10.264 10.044L11.0107 10.7092L11.0107 10.7092L10.264 10.044ZM10.264 22.98L9.51734 23.6452L10.264 22.98ZM19.724 24.388L19.216 23.5266L19.2062 23.5325L19.724 24.388ZM22.364 21.44V20.44H21.7332L21.4615 21.0093L22.364 21.44ZM30.636 21.44L31.6031 21.6945L31.9332 20.44H30.636V21.44ZM25.4 29.36L25.9898 30.1676L25.9957 30.1632L25.4 29.36ZM7.932 30.24L7.43353 31.1069L7.43992 31.1106L7.44636 31.1142L7.932 30.24ZM2.432 24.652L3.30616 24.1664L3.30616 24.1664L2.432 24.652ZM1.452 16.512C1.452 13.6101 2.07839 11.0676 3.30616 8.85764L1.55784 7.88636C0.145606 10.4284 -0.548 13.3126 -0.548 16.512H1.452ZM3.30867 8.8531C4.54065 6.60815 6.24157 4.88222 8.42226 3.65557L7.44174 1.91242C4.9291 3.32578 2.96335 5.32518 1.55533 7.8909L3.30867 8.8531ZM8.42583 3.65356C10.6372 2.39769 13.1482 1.76 15.984 1.76V-0.240002C12.8358 -0.240002 9.97875 0.471639 7.43818 1.91444L8.42583 3.65356ZM15.984 1.76C19.4649 1.76 22.3877 2.67515 24.8043 4.46723L25.9957 2.86076C23.1909 0.780849 19.8364 -0.240002 15.984 -0.240002V1.76ZM24.8043 4.46723C27.2203 6.25884 28.8428 8.69922 29.6689 11.8385L31.6031 11.3295C30.6692 7.78078 28.801 4.94116 25.9957 2.86076L24.8043 4.46723ZM30.636 10.584H22.364V12.584H30.636V10.584ZM23.2665 11.1533C22.5717 9.69747 21.5607 8.55824 20.232 7.77463L19.216 9.49737C20.1753 10.0631 20.9243 10.8892 21.4615 12.0147L23.2665 11.1533ZM20.2418 7.7805C18.9552 7.00174 17.4965 6.624 15.896 6.624V8.624C17.1702 8.624 18.2635 8.92093 19.2062 9.4915L20.2418 7.7805ZM15.896 6.624C13.3167 6.624 11.1594 7.53567 9.51734 9.37879L11.0107 10.7092C12.2433 9.32566 13.8406 8.624 15.896 8.624V6.624ZM9.51734 9.37879C7.87907 11.2177 7.108 13.6315 7.108 16.512H9.108C9.108 13.9952 9.77427 12.097 11.0107 10.7092L9.51734 9.37879ZM7.108 16.512C7.108 19.3925 7.87907 21.8063 9.51734 23.6452L11.0107 22.3148C9.77427 20.927 9.108 19.0288 9.108 16.512H7.108ZM9.51734 23.6452C11.1594 25.4883 13.3167 26.4 15.896 26.4V24.4C13.8406 24.4 12.2433 23.6983 11.0107 22.3148L9.51734 23.6452ZM15.896 26.4C17.4965 26.4 18.9552 26.0223 20.2418 25.2435L19.2062 23.5325C18.2635 24.1031 17.1702 24.4 15.896 24.4V26.4ZM20.232 25.2494C21.5607 24.4658 22.5717 23.3265 23.2665 21.8707L21.4615 21.0093C20.9243 22.1348 20.1753 22.9609 19.216 23.5266L20.232 25.2494ZM22.364 22.44H30.636V20.44H22.364V22.44ZM29.6689 21.1855C28.8428 24.3248 27.2203 26.7652 24.8043 28.5568L25.9957 30.1632C28.801 28.0828 30.6692 25.2432 31.6031 21.6945L29.6689 21.1855ZM24.8102 28.5524C22.3933 30.3176 19.4683 31.22 15.984 31.22V33.22C19.833 33.22 23.1854 32.2157 25.9898 30.1676L24.8102 28.5524ZM15.984 31.22C13.1444 31.22 10.6305 30.5952 8.41764 29.3658L7.44636 31.1142C9.98552 32.5248 12.8396 33.22 15.984 33.22V31.22ZM8.43047 29.3731C6.24203 28.1147 4.53828 26.3842 3.30616 24.1664L1.55784 25.1376C2.96572 27.6718 4.92863 29.6666 7.43353 31.1069L8.43047 29.3731ZM3.30616 24.1664C2.07839 21.9564 1.452 19.4139 1.452 16.512H-0.548C-0.548 19.7114 0.145605 22.5956 1.55784 25.1376L3.30616 24.1664ZM59.4436 30.284L58.9544 31.1562L58.9589 31.1587L59.4436 30.284ZM53.6796 24.652L52.814 25.1526L52.8175 25.1588L52.8212 25.165L53.6796 24.652ZM53.6796 8.328L52.8212 7.81502L52.8166 7.82282L53.6796 8.328ZM59.4436 2.696L58.9589 1.82133L58.9544 1.82386L59.4436 2.696ZM75.4156 2.696L74.9264 3.56815L74.9309 3.57065L75.4156 2.696ZM81.1356 8.328L80.268 8.8253L80.2726 8.83318L81.1356 8.328ZM81.1356 24.652L81.9987 25.1572L82.0013 25.1526L81.1356 24.652ZM75.4156 30.284L75.9049 31.1561L75.9049 31.1561L75.4156 30.284ZM73.3476 22.98L72.6082 22.3066L72.6017 22.314L73.3476 22.98ZM73.3476 9.956L72.6017 10.622L72.608 10.629L72.6144 10.6359L73.3476 9.956ZM61.4676 9.912L60.7343 9.23203L60.7277 9.23933L61.4676 9.912ZM61.4676 23.024L60.7217 23.69L60.728 23.697L60.7344 23.7039L61.4676 23.024ZM67.4516 31.308C64.7096 31.308 62.2082 30.6729 59.9284 29.4093L58.9589 31.1587C61.5484 32.5938 64.3856 33.308 67.4516 33.308V31.308ZM59.9329 29.4119C57.6824 28.1494 55.8873 26.397 54.538 24.139L52.8212 25.165C54.3466 27.7177 56.3942 29.7199 58.9544 31.1561L59.9329 29.4119ZM54.5453 24.1514C53.2318 21.8801 52.5676 19.3271 52.5676 16.468H50.5676C50.5676 19.6516 51.3114 22.5545 52.814 25.1526L54.5453 24.1514ZM52.5676 16.468C52.5676 13.6088 53.2318 11.0725 54.5426 8.83318L52.8166 7.82282C51.3114 10.3942 50.5676 13.2845 50.5676 16.468H52.5676ZM54.538 8.84095C55.8873 6.58302 57.6824 4.83061 59.9329 3.56814L58.9544 1.82386C56.3942 3.26005 54.3466 5.26231 52.8212 7.81504L54.538 8.84095ZM59.9284 3.57065C62.2082 2.30715 64.7096 1.672 67.4516 1.672V-0.328001C64.3856 -0.328001 61.5484 0.386184 58.9589 1.82135L59.9284 3.57065ZM67.4516 1.672C70.1937 1.672 72.6785 2.30713 74.9264 3.56814L75.9049 1.82386C73.3421 0.386207 70.5176 -0.328001 67.4516 -0.328001V1.672ZM74.9309 3.57065C77.2066 4.83187 78.9805 6.57899 80.268 8.82528L82.0032 7.83072C80.5334 5.26634 78.494 3.25879 75.9004 1.82135L74.9309 3.57065ZM80.2726 8.83318C81.5834 11.0725 82.2476 13.6088 82.2476 16.468H84.2476C84.2476 13.2845 83.5038 10.3942 81.9986 7.82282L80.2726 8.83318ZM82.2476 16.468C82.2476 19.3271 81.5834 21.8802 80.27 24.1514L82.0013 25.1526C83.5038 22.5545 84.2476 19.6516 84.2476 16.468H82.2476ZM80.2726 24.1468C78.9534 26.4005 77.175 28.1504 74.9264 29.4119L75.9049 31.1561C78.4669 29.7189 80.5019 27.7142 81.9986 25.1572L80.2726 24.1468ZM74.9264 29.4119C72.6785 30.6729 70.1937 31.308 67.4516 31.308V33.308C70.5176 33.308 73.3421 32.5938 75.9049 31.1561L74.9264 29.4119ZM67.4516 26.444C70.1628 26.444 72.4134 25.5278 74.0936 23.646L72.6017 22.314C71.3485 23.7176 69.6685 24.444 67.4516 24.444V26.444ZM74.087 23.6533C75.785 21.7888 76.5916 19.3595 76.5916 16.468H74.5916C74.5916 18.9738 73.9022 20.8859 72.6083 22.3067L74.087 23.6533ZM76.5916 16.468C76.5916 13.5512 75.787 11.116 74.0809 9.27606L72.6144 10.6359C73.9002 12.0226 74.5916 13.9288 74.5916 16.468H76.5916ZM74.0936 9.28998C72.4134 7.40822 70.1628 6.492 67.4516 6.492V8.492C69.6685 8.492 71.3485 9.21844 72.6017 10.622L74.0936 9.28998ZM67.4516 6.492C64.7209 6.492 62.4457 7.38649 60.7344 9.23206L62.2009 10.5919C63.4815 9.21084 65.1957 8.492 67.4516 8.492V6.492ZM60.7277 9.23933C59.0528 11.0817 58.2676 13.5302 58.2676 16.468H60.2676C60.2676 13.8912 60.9491 11.969 62.2076 10.5847L60.7277 9.23933ZM58.2676 16.468C58.2676 19.3806 59.0548 21.8231 60.7217 23.69L62.2136 22.358C60.9471 20.9395 60.2676 19.0114 60.2676 16.468H58.2676ZM60.7344 23.7039C62.4457 25.5495 64.7209 26.444 67.4516 26.444V24.444C65.1957 24.444 63.4815 23.7252 62.2009 22.3441L60.7344 23.7039ZM140.013 1.112H141.013V0.111999H140.013V1.112ZM140.013 32V33H141.013V32H140.013ZM132.489 32H131.489V33H132.489V32ZM132.489 13.476H133.489L131.552 13.1266L132.489 13.476ZM125.581 32V33H126.276L126.518 32.3494L125.581 32ZM119.509 32L118.573 32.3506L118.816 33H119.509V32ZM112.557 13.432L113.494 13.0814L111.557 13.432H112.557ZM112.557 32V33H113.557V32H112.557ZM105.033 32H104.033V33H105.033V32ZM105.033 1.112V0.111999H104.033V1.112H105.033ZM113.921 1.112L114.848 0.736338L114.595 0.111999H113.921V1.112ZM122.589 22.496L121.663 22.8717L122.594 25.1696L123.518 22.8684L122.589 22.496ZM131.169 1.112V0.111999H130.493L130.241 0.739621L131.169 1.112ZM139.013 1.112V32H141.013V1.112H139.013ZM140.013 31H132.489V33H140.013V31ZM133.489 32V13.476H131.489V32H133.489ZM131.552 13.1266L124.644 31.6506L126.518 32.3494L133.426 13.8254L131.552 13.1266ZM125.581 31H119.509V33H125.581V31ZM120.446 31.6494L113.494 13.0814L111.621 13.7826L118.573 32.3506L120.446 31.6494ZM111.557 13.432V32H113.557V13.432H111.557ZM112.557 31H105.033V33H112.557V31ZM106.033 32V1.112H104.033V32H106.033ZM105.033 2.112H113.921V0.111999H105.033V2.112ZM112.995 1.48766L121.663 22.8717L123.516 22.1203L114.848 0.736338L112.995 1.48766ZM123.518 22.8684L132.098 1.48438L130.241 0.739621L121.661 22.1236L123.518 22.8684ZM131.169 2.112H140.013V0.111999H131.169V2.112ZM170.548 1.112H171.548V0.111999H170.548V1.112ZM170.548 32V33H171.548V32H170.548ZM163.024 32H162.024V33H163.024V32ZM163.024 1.112V0.111999H162.024V1.112H163.024ZM169.548 1.112V32H171.548V1.112H169.548ZM170.548 31H163.024V33H170.548V31ZM164.024 32V1.112H162.024V32H164.024ZM163.024 2.112H170.548V0.111999H163.024V2.112ZM221.233 32V33H222.233V32H221.233ZM213.709 32L212.874 32.5511L213.171 33H213.709V32ZM201.125 12.948L201.959 12.3969L200.125 9.61958V12.948H201.125ZM201.125 32V33H202.125V32H201.125ZM193.601 32H192.601V33H193.601V32ZM193.601 1.112V0.111999H192.601V1.112H193.601ZM201.125 1.112L201.96 0.562629L201.664 0.111999H201.125V1.112ZM213.709 20.252L212.873 20.8014L214.709 23.5932V20.252H213.709ZM213.709 1.112V0.111999H212.709V1.112H213.709ZM221.233 1.112H222.233V0.111999H221.233V1.112ZM221.233 31H213.709V33H221.233V31ZM214.543 31.4489L201.959 12.3969L200.29 13.4991L212.874 32.5511L214.543 31.4489ZM200.125 12.948V32H202.125V12.948H200.125ZM201.125 31H193.601V33H201.125V31ZM194.601 32V1.112H192.601V32H194.601ZM193.601 2.112H201.125V0.111999H193.601V2.112ZM200.289 1.66137L212.873 20.8014L214.544 19.7026L201.96 0.562629L200.289 1.66137ZM214.709 20.252V1.112H212.709V20.252H214.709ZM213.709 2.112H221.233V0.111999H213.709V2.112ZM220.233 1.112V32H222.233V1.112H220.233ZM264.791 10.88L263.912 11.3571L264.196 11.88H264.791V10.88ZM262.371 8.548L261.894 9.42685L261.908 9.43489L261.923 9.44242L262.371 8.548ZM252.867 10.132L253.6 10.8114L253.607 10.8047L252.867 10.132ZM252.955 23.2L252.228 23.887L252.234 23.8938L252.241 23.9005L252.955 23.2ZM263.999 24.168L263.41 23.3592L263.402 23.3658L263.999 24.168ZM266.815 20.12L267.763 20.4362L268.202 19.12H266.815V20.12ZM257.267 20.12H256.267V21.12H257.267V20.12ZM257.267 14.576V13.576H256.267V14.576H257.267ZM273.635 14.576H274.635V13.576H273.635V14.576ZM273.635 21.572L274.593 21.8566L274.635 21.7173V21.572H273.635ZM270.775 26.808L270.007 26.1664L270.001 26.1748L270.775 26.808ZM265.715 30.724L265.278 29.8245L265.715 30.724ZM250.579 30.24L250.085 31.1096L250.091 31.1132L250.097 31.1167L250.579 30.24ZM244.991 24.652L244.116 25.1377L244.121 25.1458L244.991 24.652ZM244.991 8.372L244.118 7.88274L244.116 7.88636L244.991 8.372ZM250.579 2.784L251.064 3.65819L251.072 3.65356L250.579 2.784ZM268.047 3.444L267.468 4.25966L267.473 4.26279L268.047 3.444ZM273.107 10.88V11.88H274.399L274.075 10.629L273.107 10.88ZM265.669 10.4029C265.013 9.19416 264.055 8.27214 262.818 7.65357L261.923 9.44242C262.798 9.87986 263.453 10.5125 263.912 11.3571L265.669 10.4029ZM262.848 7.66914C261.647 7.01752 260.259 6.712 258.719 6.712V8.712C259.994 8.712 261.041 8.96381 261.894 9.42685L262.848 7.66914ZM258.719 6.712C256.039 6.712 253.806 7.61195 252.127 9.45933L253.607 10.8047C254.86 9.42538 256.529 8.712 258.719 8.712V6.712ZM252.133 9.45259C250.457 11.2627 249.667 13.6532 249.667 16.512H251.667C251.667 14.0322 252.343 12.1693 253.6 10.8114L252.133 9.45259ZM249.667 16.512C249.667 19.5381 250.482 22.04 252.228 23.887L253.681 22.513C252.377 21.1333 251.667 19.1765 251.667 16.512H249.667ZM252.241 23.9005C254.023 25.7162 256.429 26.576 259.335 26.576V24.576C256.842 24.576 254.996 23.8518 253.668 22.4995L252.241 23.9005ZM259.335 26.576C261.359 26.576 263.133 26.0588 264.596 24.9702L263.402 23.3658C262.342 24.1545 261.007 24.576 259.335 24.576V26.576ZM264.587 24.9767C266.072 23.8964 267.122 22.3608 267.763 20.4362L265.866 19.8038C265.334 21.3992 264.506 22.5623 263.41 23.3593L264.587 24.9767ZM266.815 19.12H257.267V21.12H266.815V19.12ZM258.267 20.12V14.576H256.267V20.12H258.267ZM257.267 15.576H273.635V13.576H257.267V15.576ZM272.635 14.576V21.572H274.635V14.576H272.635ZM272.676 21.2874C272.16 23.0245 271.276 24.6499 270.008 26.1664L271.542 27.4496C272.972 25.7394 273.994 23.8742 274.593 21.8566L272.676 21.2874ZM270.001 26.1748C268.781 27.6657 267.213 28.8844 265.278 29.8245L266.151 31.6235C268.323 30.569 270.128 29.177 271.549 27.4412L270.001 26.1748ZM265.278 29.8245C263.377 30.7475 261.212 31.22 258.763 31.22V33.22C261.475 33.22 263.945 32.6952 266.151 31.6235L265.278 29.8245ZM258.763 31.22C255.861 31.22 253.302 30.5937 251.06 29.3633L250.097 31.1167C252.666 32.5263 255.563 33.22 258.763 33.22V31.22ZM251.072 29.3704C248.853 28.1102 247.12 26.3773 245.86 24.1582L244.121 25.1458C245.559 27.6787 247.552 29.6712 250.085 31.1096L251.072 29.3704ZM245.865 24.1664C244.637 21.9564 244.011 19.4139 244.011 16.512H242.011C242.011 19.7114 242.704 22.5956 244.116 25.1376L245.865 24.1664ZM244.011 16.512C244.011 13.6101 244.637 11.0676 245.865 8.85764L244.116 7.88636C242.704 10.4284 242.011 13.3126 242.011 16.512H244.011ZM245.863 8.86125C247.123 6.61505 248.853 4.88676 251.064 3.65816L250.093 1.90984C247.552 3.32123 245.557 5.31828 244.118 7.88275L245.863 8.86125ZM251.072 3.65356C253.281 2.39935 255.82 1.76 258.719 1.76V-0.240002C255.515 -0.240002 252.628 0.469985 250.085 1.91444L251.072 3.65356ZM258.719 1.76C262.249 1.76 265.145 2.61214 267.468 4.25965L268.625 2.62835C265.903 0.697191 262.581 -0.240002 258.719 -0.240002V1.76ZM267.473 4.26279C269.82 5.90843 271.374 8.18052 272.139 11.131L274.075 10.629C273.197 7.24348 271.378 4.55823 268.621 2.62521L267.473 4.26279ZM273.107 9.88H264.791V11.88H273.107V9.88ZM327.43 31.208L327.051 32.1333L327.051 32.1333L327.43 31.208ZM323.118 27.952L322.312 28.5441L322.32 28.5546L323.118 27.952ZM321.446 22.76V21.76H320.417L320.447 22.789L321.446 22.76ZM329.454 22.76L330.449 22.658L330.357 21.76H329.454V22.76ZM330.642 25.4L329.968 26.1385L329.977 26.1467L329.986 26.1546L330.642 25.4ZM335.922 25.532L336.534 26.3233L336.545 26.3148L336.556 26.306L335.922 25.532ZM336.098 21.484L335.391 22.1911L335.401 22.2012L335.412 22.211L336.098 21.484ZM334.206 20.252L333.804 21.1673L333.81 21.1702L333.817 21.173L334.206 20.252ZM331.038 19.152L330.743 20.1075L330.753 20.1104L331.038 19.152ZM326.154 17.304L325.716 18.2026L326.154 17.304ZM322.898 14.576L323.696 13.9729L323.696 13.9729L322.898 14.576ZM324.658 3.136L325.271 3.92658L325.278 3.92116L324.658 3.136ZM341.026 3.136L340.407 3.9212L340.414 3.92655L341.026 3.136ZM344.37 9.912V10.912H345.422L345.369 9.86156L344.37 9.912ZM336.23 9.912L335.232 9.97072L335.288 10.912H336.23V9.912ZM335.13 7.58L334.474 8.3346L334.484 8.34291L334.494 8.35096L335.13 7.58ZM330.334 7.448L330.979 8.21291L330.99 8.20325L331.001 8.19324L330.334 7.448ZM330.906 11.848L331.417 10.9881L331.417 10.9881L330.906 11.848ZM335.306 13.652L335.627 12.7046L335.614 12.7006L335.306 13.652ZM340.146 15.588L339.699 16.4825L339.708 16.4866L340.146 15.588ZM343.402 18.272L342.612 18.8846L342.612 18.8846L343.402 18.272ZM343.402 27.6L342.557 27.0654L342.553 27.0716L342.55 27.0778L343.402 27.6ZM339.53 31.032L339.083 30.1376L339.083 30.1376L339.53 31.032ZM333.502 31.308C331.352 31.308 329.46 30.9591 327.81 30.2827L327.051 32.1333C328.979 32.9235 331.135 33.308 333.502 33.308V31.308ZM327.81 30.2827C326.174 29.6122 324.886 28.633 323.916 27.3494L322.32 28.5546C323.522 30.1457 325.109 31.3371 327.051 32.1333L327.81 30.2827ZM323.924 27.3599C323.004 26.1078 322.5 24.5805 322.446 22.731L320.447 22.789C320.511 24.9875 321.12 26.9215 322.313 28.5441L323.924 27.3599ZM321.446 23.76H329.454V21.76H321.446V23.76ZM328.46 22.862C328.595 24.1848 329.069 25.3173 329.968 26.1385L331.317 24.6615C330.867 24.2507 330.548 23.6232 330.449 22.658L328.46 22.862ZM329.986 26.1546C330.88 26.9316 332.01 27.28 333.282 27.28V25.28C332.384 25.28 331.754 25.0417 331.299 24.6454L329.986 26.1546ZM333.282 27.28C334.538 27.28 335.659 26.9992 336.534 26.3233L335.311 24.7407C334.895 25.0621 334.256 25.28 333.282 25.28V27.28ZM336.556 26.306C337.456 25.5693 337.89 24.5543 337.89 23.376H335.89C335.89 24.0163 335.679 24.4387 335.289 24.758L336.556 26.306ZM337.89 23.376C337.89 22.3537 337.524 21.4549 336.785 20.757L335.412 22.211C335.729 22.5104 335.89 22.873 335.89 23.376H337.89ZM336.806 20.7769C336.201 20.1728 335.457 19.6953 334.596 19.331L333.817 21.173C334.481 21.4541 334.998 21.7979 335.391 22.1911L336.806 20.7769ZM334.609 19.3367C333.819 18.989 332.716 18.6084 331.324 18.1936L330.753 20.1104C332.118 20.5169 333.127 20.8697 333.804 21.1673L334.609 19.3367ZM331.334 18.1965C329.367 17.5892 327.792 16.9907 326.593 16.4054L325.716 18.2026C327.04 18.8493 328.721 19.4828 330.743 20.1075L331.334 18.1965ZM326.593 16.4054C325.483 15.8634 324.518 15.0598 323.696 13.9729L322.101 15.1791C323.098 16.4976 324.303 17.5126 325.716 18.2026L326.593 16.4054ZM323.696 13.9729C322.951 12.9877 322.534 11.6486 322.534 9.868H320.534C320.534 11.9594 321.027 13.7589 322.101 15.1791L323.696 13.9729ZM322.534 9.868C322.534 7.27018 323.457 5.33147 325.271 3.92655L324.046 2.34545C321.694 4.1672 320.534 6.71649 320.534 9.868H322.534ZM325.278 3.92116C327.142 2.45057 329.619 1.672 332.798 1.672V-0.328001C329.289 -0.328001 326.34 0.536091 324.039 2.35083L325.278 3.92116ZM332.798 1.672C336.041 1.672 338.546 2.45286 340.407 3.92117L341.646 2.35083C339.342 0.533809 336.361 -0.328001 332.798 -0.328001V1.672ZM340.414 3.92655C342.241 5.34146 343.238 7.31567 343.372 9.96244L345.369 9.86156C345.21 6.70033 343.978 4.1572 341.639 2.34545L340.414 3.92655ZM344.37 8.912H336.23V10.912H344.37V8.912ZM337.229 9.85328C337.156 8.62183 336.687 7.56908 335.767 6.80904L334.494 8.35096C334.923 8.70559 335.187 9.2075 335.232 9.97072L337.229 9.85328ZM335.787 6.82539C334.898 6.05269 333.786 5.7 332.534 5.7V7.7C333.395 7.7 334.014 7.93397 334.474 8.3346L335.787 6.82539ZM332.534 5.7C331.435 5.7 330.446 6.00635 329.668 6.70276L331.001 8.19324C331.338 7.89231 331.815 7.7 332.534 7.7V5.7ZM329.69 6.68309C328.853 7.3883 328.498 8.39122 328.498 9.516H330.498C330.498 8.8221 330.701 8.44636 330.979 8.21291L329.69 6.68309ZM328.498 9.516C328.498 10.9048 329.188 11.9909 330.396 12.7079L331.417 10.9881C330.747 10.5904 330.498 10.1219 330.498 9.516H328.498ZM330.396 12.7079C331.433 13.3235 332.985 13.9521 334.999 14.6034L335.614 12.7006C333.638 12.0613 332.257 11.4872 331.417 10.9881L330.396 12.7079ZM334.986 14.5993C336.957 15.2661 338.524 15.8946 339.699 16.4824L340.594 14.6936C339.305 14.0494 337.645 13.3873 335.627 12.7047L334.986 14.5993ZM339.708 16.4866C340.824 17.0315 341.791 17.8251 342.612 18.8846L344.193 17.6594C343.195 16.3722 341.992 15.3765 340.585 14.6894L339.708 16.4866ZM342.612 18.8846C343.355 19.8433 343.766 21.1224 343.766 22.804H345.766C345.766 20.7896 345.268 19.0473 344.193 17.6594L342.612 18.8846ZM343.766 22.804C343.766 24.3817 343.362 25.7937 342.557 27.0654L344.248 28.1346C345.262 26.5316 345.766 24.7463 345.766 22.804H343.766ZM342.55 27.0778C341.779 28.3357 340.639 29.3595 339.083 30.1376L339.978 31.9264C341.824 31.0031 343.265 29.7389 344.255 28.1222L342.55 27.0778ZM339.083 30.1376C337.548 30.9053 335.698 31.308 333.502 31.308V33.308C335.942 33.308 338.11 32.86 339.978 31.9264L339.083 30.1376ZM373.597 30.284L373.107 31.1562L373.112 31.1587L373.597 30.284ZM367.833 24.652L366.967 25.1526L366.971 25.1588L366.974 25.165L367.833 24.652ZM367.833 8.328L366.974 7.81502L366.97 7.82282L367.833 8.328ZM373.597 2.696L373.112 1.82133L373.107 1.82386L373.597 2.696ZM389.569 2.696L389.079 3.56815L389.084 3.57065L389.569 2.696ZM395.289 8.328L394.421 8.8253L394.426 8.83318L395.289 8.328ZM395.289 24.652L396.152 25.1572L396.154 25.1526L395.289 24.652ZM389.569 30.284L390.058 31.1561L390.058 31.1561L389.569 30.284ZM387.501 22.98L386.761 22.3066L386.755 22.314L387.501 22.98ZM387.501 9.956L386.755 10.622L386.761 10.629L386.767 10.6359L387.501 9.956ZM375.621 9.912L374.887 9.23203L374.881 9.23933L375.621 9.912ZM375.621 23.024L374.875 23.69L374.881 23.697L374.887 23.7039L375.621 23.024ZM381.605 31.308C378.863 31.308 376.361 30.6729 374.081 29.4093L373.112 31.1587C375.702 32.5938 378.539 33.308 381.605 33.308V31.308ZM374.086 29.4119C371.835 28.1494 370.04 26.397 368.691 24.139L366.974 25.165C368.5 27.7177 370.547 29.7199 373.107 31.1561L374.086 29.4119ZM368.698 24.1514C367.385 21.8801 366.721 19.3271 366.721 16.468H364.721C364.721 19.6516 365.465 22.5545 366.967 25.1526L368.698 24.1514ZM366.721 16.468C366.721 13.6088 367.385 11.0725 368.696 8.83318L366.97 7.82282C365.465 10.3942 364.721 13.2845 364.721 16.468H366.721ZM368.691 8.84095C370.04 6.58302 371.835 4.83061 374.086 3.56814L373.107 1.82386C370.547 3.26005 368.5 5.26231 366.974 7.81504L368.691 8.84095ZM374.081 3.57065C376.361 2.30715 378.863 1.672 381.605 1.672V-0.328001C378.539 -0.328001 375.702 0.386184 373.112 1.82135L374.081 3.57065ZM381.605 1.672C384.347 1.672 386.832 2.30713 389.079 3.56814L390.058 1.82386C387.495 0.386207 384.671 -0.328001 381.605 -0.328001V1.672ZM389.084 3.57065C391.36 4.83187 393.134 6.57899 394.421 8.82528L396.156 7.83072C394.687 5.26634 392.647 3.25879 390.053 1.82135L389.084 3.57065ZM394.426 8.83318C395.737 11.0725 396.401 13.6088 396.401 16.468H398.401C398.401 13.2845 397.657 10.3942 396.152 7.82282L394.426 8.83318ZM396.401 16.468C396.401 19.3271 395.737 21.8802 394.423 24.1514L396.154 25.1526C397.657 22.5545 398.401 19.6516 398.401 16.468H396.401ZM394.426 24.1468C393.106 26.4005 391.328 28.1504 389.079 29.4119L390.058 31.1561C392.62 29.7189 394.655 27.7142 396.152 25.1572L394.426 24.1468ZM389.079 29.4119C386.832 30.6729 384.347 31.308 381.605 31.308V33.308C384.671 33.308 387.495 32.5938 390.058 31.1561L389.079 29.4119ZM381.605 26.444C384.316 26.444 386.567 25.5278 388.247 23.646L386.755 22.314C385.502 23.7176 383.822 24.444 381.605 24.444V26.444ZM388.24 23.6533C389.938 21.7888 390.745 19.3595 390.745 16.468H388.745C388.745 18.9738 388.055 20.8859 386.761 22.3067L388.24 23.6533ZM390.745 16.468C390.745 13.5512 389.94 11.116 388.234 9.27606L386.767 10.6359C388.053 12.0226 388.745 13.9288 388.745 16.468H390.745ZM388.247 9.28998C386.567 7.40822 384.316 6.492 381.605 6.492V8.492C383.822 8.492 385.502 9.21844 386.755 10.622L388.247 9.28998ZM381.605 6.492C378.874 6.492 376.599 7.38649 374.887 9.23206L376.354 10.5919C377.635 9.21084 379.349 8.492 381.605 8.492V6.492ZM374.881 9.23933C373.206 11.0817 372.421 13.5302 372.421 16.468H374.421C374.421 13.8912 375.102 11.969 376.361 10.5847L374.881 9.23933ZM372.421 16.468C372.421 19.3806 373.208 21.8231 374.875 23.69L376.367 22.358C375.1 20.9395 374.421 19.0114 374.421 16.468H372.421ZM374.887 23.7039C376.599 25.5495 378.874 26.444 381.605 26.444V24.444C379.349 24.444 377.635 23.7252 376.354 22.3441L374.887 23.7039ZM425.787 30.284L425.297 31.1562L425.302 31.1587L425.787 30.284ZM420.023 24.652L419.157 25.1526L419.161 25.1588L419.164 25.165L420.023 24.652ZM420.023 8.328L419.164 7.81502L419.16 7.82282L420.023 8.328ZM425.787 2.696L425.302 1.82133L425.297 1.82386L425.787 2.696ZM441.759 2.696L441.269 3.56815L441.274 3.57065L441.759 2.696ZM447.479 8.328L446.611 8.8253L446.616 8.83318L447.479 8.328ZM447.479 24.652L448.342 25.1572L448.344 25.1526L447.479 24.652ZM441.759 30.284L442.248 31.1561L442.248 31.1561L441.759 30.284ZM439.691 22.98L438.951 22.3066L438.945 22.314L439.691 22.98ZM439.691 9.956L438.945 10.622L438.951 10.629L438.957 10.6359L439.691 9.956ZM427.811 9.912L427.077 9.23203L427.071 9.23933L427.811 9.912ZM427.811 23.024L427.065 23.69L427.071 23.697L427.077 23.7039L427.811 23.024ZM433.795 31.308C431.053 31.308 428.551 30.6729 426.271 29.4093L425.302 31.1587C427.891 32.5938 430.729 33.308 433.795 33.308V31.308ZM426.276 29.4119C424.025 28.1494 422.23 26.397 420.881 24.139L419.164 25.165C420.69 27.7177 422.737 29.7199 425.297 31.1561L426.276 29.4119ZM420.888 24.1514C419.575 21.8801 418.911 19.3271 418.911 16.468H416.911C416.911 19.6516 417.654 22.5545 419.157 25.1526L420.888 24.1514ZM418.911 16.468C418.911 13.6088 419.575 11.0725 420.886 8.83318L419.16 7.82282C417.654 10.3942 416.911 13.2845 416.911 16.468H418.911ZM420.881 8.84095C422.23 6.58302 424.025 4.83061 426.276 3.56814L425.297 1.82386C422.737 3.26005 420.69 5.26231 419.164 7.81504L420.881 8.84095ZM426.271 3.57065C428.551 2.30715 431.053 1.672 433.795 1.672V-0.328001C430.729 -0.328001 427.891 0.386184 425.302 1.82135L426.271 3.57065ZM433.795 1.672C436.537 1.672 439.021 2.30713 441.269 3.56814L442.248 1.82386C439.685 0.386207 436.861 -0.328001 433.795 -0.328001V1.672ZM441.274 3.57065C443.55 4.83187 445.323 6.57899 446.611 8.82528L448.346 7.83072C446.876 5.26634 444.837 3.25879 442.243 1.82135L441.274 3.57065ZM446.616 8.83318C447.926 11.0725 448.591 13.6088 448.591 16.468H450.591C450.591 13.2845 449.847 10.3942 448.342 7.82282L446.616 8.83318ZM448.591 16.468C448.591 19.3271 447.926 21.8802 446.613 24.1514L448.344 25.1526C449.847 22.5545 450.591 19.6516 450.591 16.468H448.591ZM446.616 24.1468C445.296 26.4005 443.518 28.1504 441.269 29.4119L442.248 31.1561C444.81 29.7189 446.845 27.7142 448.342 25.1572L446.616 24.1468ZM441.269 29.4119C439.021 30.6729 436.537 31.308 433.795 31.308V33.308C436.861 33.308 439.685 32.5938 442.248 31.1561L441.269 29.4119ZM433.795 26.444C436.506 26.444 438.756 25.5278 440.437 23.646L438.945 22.314C437.691 23.7176 436.011 24.444 433.795 24.444V26.444ZM440.43 23.6533C442.128 21.7888 442.935 19.3595 442.935 16.468H440.935C440.935 18.9738 440.245 20.8859 438.951 22.3067L440.43 23.6533ZM442.935 16.468C442.935 13.5512 442.13 11.116 440.424 9.27606L438.957 10.6359C440.243 12.0226 440.935 13.9288 440.935 16.468H442.935ZM440.437 9.28998C438.756 7.40822 436.506 6.492 433.795 6.492V8.492C436.011 8.492 437.691 9.21844 438.945 10.622L440.437 9.28998ZM433.795 6.492C431.064 6.492 428.789 7.38649 427.077 9.23206L428.544 10.5919C429.825 9.21084 431.539 8.492 433.795 8.492V6.492ZM427.071 9.23933C425.396 11.0817 424.611 13.5302 424.611 16.468H426.611C426.611 13.8912 427.292 11.969 428.551 10.5847L427.071 9.23933ZM424.611 16.468C424.611 19.3806 425.398 21.8231 427.065 23.69L428.557 22.358C427.29 20.9395 426.611 19.0114 426.611 16.468H424.611ZM427.077 23.7039C428.789 25.5495 431.064 26.444 433.795 26.444V24.444C431.539 24.444 429.825 23.7252 428.544 22.3441L427.077 23.7039ZM499.008 32V33H500.008V32H499.008ZM491.484 32L490.65 32.5511L490.947 33H491.484V32ZM478.9 12.948L479.735 12.3969L477.9 9.61958V12.948H478.9ZM478.9 32V33H479.9V32H478.9ZM471.376 32H470.376V33H471.376V32ZM471.376 1.112V0.111999H470.376V1.112H471.376ZM478.9 1.112L479.736 0.562629L479.44 0.111999H478.9V1.112ZM491.484 20.252L490.649 20.8014L492.484 23.5932V20.252H491.484ZM491.484 1.112V0.111999H490.484V1.112H491.484ZM499.008 1.112H500.008V0.111999H499.008V1.112ZM499.008 31H491.484V33H499.008V31ZM492.319 31.4489L479.735 12.3969L478.066 13.4991L490.65 32.5511L492.319 31.4489ZM477.9 12.948V32H479.9V12.948H477.9ZM478.9 31H471.376V33H478.9V31ZM472.376 32V1.112H470.376V32H472.376ZM471.376 2.112H478.9V0.111999H471.376V2.112ZM478.065 1.66137L490.649 20.8014L492.32 19.7026L479.736 0.562629L478.065 1.66137ZM492.484 20.252V1.112H490.484V20.252H492.484ZM491.484 2.112H499.008V0.111999H491.484V2.112ZM498.008 1.112V32H500.008V1.112H498.008Z" fill="white" mask="url(#path-1-outside-1_1_194)"/>
</svg>
