<svg width="500" height="33" viewBox="0 0 500 33" fill="none" xmlns="http://www.w3.org/2000/svg">
<mask id="path-1-outside-1_1_194" maskUnits="userSpaceOnUse" x="-1" y="-1" width="502" height="35" fill="black">
<rect fill="white" x="-1" y="-1" width="502" height="35"/>
<path d="M0.584812 16.512C0.584812 13.4613 1.24481 10.748 2.56481 8.372C3.88481 5.96667 5.71815 4.104 8.06481 2.784C10.4408 1.43467 13.1248 0.759998 16.1168 0.759998C19.7835 0.759998 22.9221 1.728 25.5328 3.664C28.1435 5.6 29.8888 8.24 30.7688 11.584H22.4968C21.8808 10.2933 21.0008 9.31067 19.8568 8.636C18.7421 7.96133 17.4661 7.624 16.0288 7.624C13.7115 7.624 11.8341 8.43067 10.3968 10.044C8.95948 11.6573 8.24081 13.8133 8.24081 16.512C8.24081 19.2107 8.95948 21.3667 10.3968 22.98C11.8341 24.5933 13.7115 25.4 16.0288 25.4C17.4661 25.4 18.7421 25.0627 19.8568 24.388C21.0008 23.7133 21.8808 22.7307 22.4968 21.44H30.7688C29.8888 24.784 28.1435 27.424 25.5328 29.36C22.9221 31.2667 19.7835 32.22 16.1168 32.22C13.1248 32.22 10.4408 31.56 8.06481 30.24C5.71815 28.8907 3.88481 27.028 2.56481 24.652C1.24481 22.276 0.584812 19.5627 0.584812 16.512ZM67.5844 32.308C64.6804 32.308 62.0111 31.6333 59.5764 30.284C57.1711 28.9347 55.2498 27.0573 53.8124 24.652C52.4044 22.2173 51.7004 19.4893 51.7004 16.468C51.7004 13.4467 52.4044 10.7333 53.8124 8.328C55.2498 5.92267 57.1711 4.04533 59.5764 2.696C62.0111 1.34667 64.6804 0.671999 67.5844 0.671999C70.4884 0.671999 73.1431 1.34667 75.5484 2.696C77.9831 4.04533 79.8898 5.92267 81.2684 8.328C82.6764 10.7333 83.3804 13.4467 83.3804 16.468C83.3804 19.4893 82.6764 22.2173 81.2684 24.652C79.8604 27.0573 77.9538 28.9347 75.5484 30.284C73.1431 31.6333 70.4884 32.308 67.5844 32.308ZM67.5844 25.444C70.0484 25.444 72.0138 24.6227 73.4804 22.98C74.9764 21.3373 75.7244 19.1667 75.7244 16.468C75.7244 13.74 74.9764 11.5693 73.4804 9.956C72.0138 8.31333 70.0484 7.492 67.5844 7.492C65.0911 7.492 63.0964 8.29866 61.6004 9.912C60.1338 11.5253 59.4004 13.7107 59.4004 16.468C59.4004 19.196 60.1338 21.3813 61.6004 23.024C63.0964 24.6373 65.0911 25.444 67.5844 25.444ZM140.146 1.112V32H132.622V13.476L125.714 32H119.642L112.69 13.432V32H105.166V1.112H114.054L122.722 22.496L131.302 1.112H140.146ZM170.681 1.112V32H163.157V1.112H170.681ZM221.365 32H213.841L201.257 12.948V32H193.733V1.112H201.257L213.841 20.252V1.112H221.365V32ZM264.923 10.88C264.366 9.85333 263.559 9.076 262.503 8.548C261.477 7.99066 260.259 7.712 258.851 7.712C256.417 7.712 254.466 8.51867 252.999 10.132C251.533 11.716 250.799 13.8427 250.799 16.512C250.799 19.3573 251.562 21.5867 253.087 23.2C254.642 24.784 256.769 25.576 259.467 25.576C261.315 25.576 262.87 25.1067 264.131 24.168C265.422 23.2293 266.361 21.88 266.947 20.12H257.399V14.576H273.767V21.572C273.21 23.4493 272.257 25.1947 270.907 26.808C269.587 28.4213 267.901 29.7267 265.847 30.724C263.794 31.7213 261.477 32.22 258.895 32.22C255.845 32.22 253.117 31.56 250.711 30.24C248.335 28.8907 246.473 27.028 245.123 24.652C243.803 22.276 243.143 19.5627 243.143 16.512C243.143 13.4613 243.803 10.748 245.123 8.372C246.473 5.96667 248.335 4.104 250.711 2.784C253.087 1.43467 255.801 0.759998 258.851 0.759998C262.547 0.759998 265.657 1.65466 268.179 3.444C270.731 5.23333 272.418 7.712 273.239 10.88H264.923ZM333.635 32.308C331.377 32.308 329.353 31.9413 327.563 31.208C325.774 30.4747 324.337 29.3893 323.251 27.952C322.195 26.5147 321.638 24.784 321.579 22.76H329.587C329.705 23.904 330.101 24.784 330.775 25.4C331.45 25.9867 332.33 26.28 333.415 26.28C334.53 26.28 335.41 26.0307 336.055 25.532C336.701 25.004 337.023 24.2853 337.023 23.376C337.023 22.6133 336.759 21.9827 336.231 21.484C335.733 20.9853 335.102 20.5747 334.339 20.252C333.606 19.9293 332.55 19.5627 331.171 19.152C329.177 18.536 327.549 17.92 326.287 17.304C325.026 16.688 323.941 15.7787 323.031 14.576C322.122 13.3733 321.667 11.804 321.667 9.868C321.667 6.99333 322.709 4.74933 324.791 3.136C326.874 1.49333 329.587 0.671999 332.931 0.671999C336.334 0.671999 339.077 1.49333 341.159 3.136C343.242 4.74933 344.357 7.008 344.503 9.912H336.363C336.305 8.91467 335.938 8.13733 335.263 7.58C334.589 6.99333 333.723 6.7 332.667 6.7C331.758 6.7 331.025 6.94933 330.467 7.448C329.91 7.91733 329.631 8.60666 329.631 9.516C329.631 10.5133 330.101 11.2907 331.039 11.848C331.978 12.4053 333.445 13.0067 335.439 13.652C337.434 14.3267 339.047 14.972 340.279 15.588C341.541 16.204 342.626 17.0987 343.535 18.272C344.445 19.4453 344.899 20.956 344.899 22.804C344.899 24.564 344.445 26.1627 343.535 27.6C342.655 29.0373 341.365 30.1813 339.663 31.032C337.962 31.8827 335.953 32.308 333.635 32.308ZM381.738 32.308C378.834 32.308 376.164 31.6333 373.73 30.284C371.324 28.9347 369.403 27.0573 367.966 24.652C366.558 22.2173 365.854 19.4893 365.854 16.468C365.854 13.4467 366.558 10.7333 367.966 8.328C369.403 5.92267 371.324 4.04533 373.73 2.696C376.164 1.34667 378.834 0.671999 381.738 0.671999C384.642 0.671999 387.296 1.34667 389.702 2.696C392.136 4.04533 394.043 5.92267 395.422 8.328C396.83 10.7333 397.534 13.4467 397.534 16.468C397.534 19.4893 396.83 22.2173 395.422 24.652C394.014 27.0573 392.107 28.9347 389.702 30.284C387.296 31.6333 384.642 32.308 381.738 32.308ZM381.738 25.444C384.202 25.444 386.167 24.6227 387.634 22.98C389.13 21.3373 389.878 19.1667 389.878 16.468C389.878 13.74 389.13 11.5693 387.634 9.956C386.167 8.31333 384.202 7.492 381.738 7.492C379.244 7.492 377.25 8.29866 375.754 9.912C374.287 11.5253 373.554 13.7107 373.554 16.468C373.554 19.196 374.287 21.3813 375.754 23.024C377.25 24.6373 379.244 25.444 381.738 25.444ZM433.927 32.308C431.023 32.308 428.354 31.6333 425.919 30.284C423.514 28.9347 421.593 27.0573 420.155 24.652C418.747 22.2173 418.043 19.4893 418.043 16.468C418.043 13.4467 418.747 10.7333 420.155 8.328C421.593 5.92267 423.514 4.04533 425.919 2.696C428.354 1.34667 431.023 0.671999 433.927 0.671999C436.831 0.671999 439.486 1.34667 441.891 2.696C444.326 4.04533 446.233 5.92267 447.611 8.328C449.019 10.7333 449.723 13.4467 449.723 16.468C449.723 19.4893 449.019 22.2173 447.611 24.652C446.203 27.0573 444.297 28.9347 441.891 30.284C439.486 31.6333 436.831 32.308 433.927 32.308ZM433.927 25.444C436.391 25.444 438.357 24.6227 439.823 22.98C441.319 21.3373 442.067 19.1667 442.067 16.468C442.067 13.74 441.319 11.5693 439.823 9.956C438.357 8.31333 436.391 7.492 433.927 7.492C431.434 7.492 429.439 8.29866 427.943 9.912C426.477 11.5253 425.743 13.7107 425.743 16.468C425.743 19.196 426.477 21.3813 427.943 23.024C429.439 24.6373 431.434 25.444 433.927 25.444ZM499.141 32H491.617L479.033 12.948V32H471.509V1.112H479.033L491.617 20.252V1.112H499.141V32Z"/>
</mask>
<path d="M2.56481 8.372L3.43898 8.85765L3.44148 8.8531L2.56481 8.372ZM8.06481 2.784L8.55508 3.65558L8.55864 3.65356L8.06481 2.784ZM25.5328 3.664L26.1285 2.86076L26.1285 2.86076L25.5328 3.664ZM30.7688 11.584V12.584H32.066L31.7359 11.3295L30.7688 11.584ZM22.4968 11.584L21.5943 12.0147L21.866 12.584H22.4968V11.584ZM19.8568 8.636L19.339 9.49156L19.3488 9.49737L19.8568 8.636ZM10.3968 10.044L11.1435 10.7092L11.1435 10.7092L10.3968 10.044ZM10.3968 22.98L9.65015 23.6452L10.3968 22.98ZM19.8568 24.388L19.3488 23.5266L19.339 23.5325L19.8568 24.388ZM22.4968 21.44V20.44H21.866L21.5943 21.0093L22.4968 21.44ZM30.7688 21.44L31.7359 21.6945L32.066 20.44H30.7688V21.44ZM25.5328 29.36L26.1226 30.1676L26.1285 30.1632L25.5328 29.36ZM8.06481 30.24L7.56634 31.1069L7.57273 31.1106L7.57917 31.1142L8.06481 30.24ZM2.56481 24.652L3.43897 24.1664L3.43897 24.1664L2.56481 24.652ZM1.58481 16.512C1.58481 13.6101 2.21121 11.0676 3.43897 8.85764L1.69066 7.88636C0.278418 10.4284 -0.415188 13.3126 -0.415188 16.512H1.58481ZM3.44148 8.8531C4.67346 6.60815 6.37438 4.88222 8.55507 3.65557L7.57455 1.91242C5.06191 3.32578 3.09616 5.32518 1.68815 7.8909L3.44148 8.8531ZM8.55864 3.65356C10.7701 2.39769 13.281 1.76 16.1168 1.76V-0.240002C12.9686 -0.240002 10.1116 0.471639 7.57099 1.91444L8.55864 3.65356ZM16.1168 1.76C19.5977 1.76 22.5206 2.67515 24.9372 4.46723L26.1285 2.86076C23.3237 0.780849 19.9692 -0.240002 16.1168 -0.240002V1.76ZM24.9372 4.46723C27.3531 6.25884 28.9756 8.69922 29.8017 11.8385L31.7359 11.3295C30.802 7.78078 28.9339 4.94116 26.1285 2.86076L24.9372 4.46723ZM30.7688 10.584H22.4968V12.584H30.7688V10.584ZM23.3993 11.1533C22.7045 9.69747 21.6935 8.55824 20.3648 7.77463L19.3488 9.49737C20.3081 10.0631 21.0571 10.8892 21.5943 12.0147L23.3993 11.1533ZM20.3746 7.7805C19.088 7.00174 17.6293 6.624 16.0288 6.624V8.624C17.303 8.624 18.3963 8.92093 19.339 9.4915L20.3746 7.7805ZM16.0288 6.624C13.4495 6.624 11.2922 7.53567 9.65015 9.37879L11.1435 10.7092C12.3761 9.32566 13.9734 8.624 16.0288 8.624V6.624ZM9.65015 9.37879C8.01188 11.2177 7.24081 13.6315 7.24081 16.512H9.24081C9.24081 13.9952 9.90708 12.097 11.1435 10.7092L9.65015 9.37879ZM7.24081 16.512C7.24081 19.3925 8.01188 21.8063 9.65015 23.6452L11.1435 22.3148C9.90708 20.927 9.24081 19.0288 9.24081 16.512H7.24081ZM9.65015 23.6452C11.2922 25.4883 13.4495 26.4 16.0288 26.4V24.4C13.9734 24.4 12.3761 23.6983 11.1435 22.3148L9.65015 23.6452ZM16.0288 26.4C17.6293 26.4 19.088 26.0223 20.3746 25.2435L19.339 23.5325C18.3963 24.1031 17.303 24.4 16.0288 24.4V26.4ZM20.3648 25.2494C21.6935 24.4658 22.7045 23.3265 23.3993 21.8707L21.5943 21.0093C21.0571 22.1348 20.3081 22.9609 19.3488 23.5266L20.3648 25.2494ZM22.4968 22.44H30.7688V20.44H22.4968V22.44ZM29.8017 21.1855C28.9756 24.3248 27.3531 26.7652 24.9372 28.5568L26.1285 30.1632C28.9339 28.0828 30.802 25.2432 31.7359 21.6945L29.8017 21.1855ZM24.943 28.5524C22.5261 30.3176 19.6011 31.22 16.1168 31.22V33.22C19.9658 33.22 23.3182 32.2157 26.1226 30.1676L24.943 28.5524ZM16.1168 31.22C13.2772 31.22 10.7633 30.5952 8.55046 29.3658L7.57917 31.1142C10.1183 32.5248 12.9724 33.22 16.1168 33.22V31.22ZM8.56328 29.3731C6.37484 28.1147 4.67109 26.3842 3.43897 24.1664L1.69066 25.1376C3.09853 27.6718 5.06145 29.6666 7.56634 31.1069L8.56328 29.3731ZM3.43897 24.1664C2.21121 21.9564 1.58481 19.4139 1.58481 16.512H-0.415188C-0.415188 19.7114 0.278418 22.5956 1.69066 25.1376L3.43897 24.1664ZM59.5764 30.284L59.0872 31.1562L59.0917 31.1587L59.5764 30.284ZM53.8124 24.652L52.9468 25.1526L52.9504 25.1588L52.954 25.165L53.8124 24.652ZM53.8124 8.328L52.954 7.81502L52.9494 7.82282L53.8124 8.328ZM59.5764 2.696L59.0917 1.82133L59.0872 1.82386L59.5764 2.696ZM75.5484 2.696L75.0592 3.56815L75.0637 3.57065L75.5484 2.696ZM81.2684 8.328L80.4008 8.8253L80.4054 8.83318L81.2684 8.328ZM81.2684 24.652L82.1315 25.1572L82.1341 25.1526L81.2684 24.652ZM75.5484 30.284L76.0377 31.1561L76.0377 31.1561L75.5484 30.284ZM73.4804 22.98L72.7411 22.3066L72.7345 22.314L73.4804 22.98ZM73.4804 9.956L72.7345 10.622L72.7408 10.629L72.7472 10.6359L73.4804 9.956ZM61.6004 9.912L60.8671 9.23203L60.8605 9.23933L61.6004 9.912ZM61.6004 23.024L60.8545 23.69L60.8608 23.697L60.8672 23.7039L61.6004 23.024ZM67.5844 31.308C64.8424 31.308 62.341 30.6729 60.0612 29.4093L59.0917 31.1587C61.6812 32.5938 64.5185 33.308 67.5844 33.308V31.308ZM60.0657 29.4119C57.8152 28.1494 56.0201 26.397 54.6709 24.139L52.954 25.165C54.4794 27.7177 56.527 29.7199 59.0872 31.1561L60.0657 29.4119ZM54.6781 24.1514C53.3646 21.8801 52.7004 19.3271 52.7004 16.468H50.7004C50.7004 19.6516 51.4443 22.5545 52.9468 25.1526L54.6781 24.1514ZM52.7004 16.468C52.7004 13.6088 53.3646 11.0725 54.6755 8.83318L52.9494 7.82282C51.4442 10.3942 50.7004 13.2845 50.7004 16.468H52.7004ZM54.6709 8.84095C56.0201 6.58302 57.8152 4.83061 60.0657 3.56814L59.0872 1.82386C56.527 3.26005 54.4794 5.26231 52.954 7.81504L54.6709 8.84095ZM60.0612 3.57065C62.341 2.30715 64.8424 1.672 67.5844 1.672V-0.328001C64.5185 -0.328001 61.6812 0.386184 59.0917 1.82135L60.0612 3.57065ZM67.5844 1.672C70.3265 1.672 72.8113 2.30713 75.0592 3.56814L76.0377 1.82386C73.4749 0.386207 70.6504 -0.328001 67.5844 -0.328001V1.672ZM75.0637 3.57065C77.3394 4.83187 79.1133 6.57899 80.4008 8.82528L82.136 7.83072C80.6662 5.26634 78.6268 3.25879 76.0332 1.82135L75.0637 3.57065ZM80.4054 8.83318C81.7162 11.0725 82.3804 13.6088 82.3804 16.468H84.3804C84.3804 13.2845 83.6366 10.3942 82.1315 7.82282L80.4054 8.83318ZM82.3804 16.468C82.3804 19.3271 81.7163 21.8802 80.4028 24.1514L82.1341 25.1526C83.6366 22.5545 84.3804 19.6516 84.3804 16.468H82.3804ZM80.4054 24.1468C79.0862 26.4005 77.3078 28.1504 75.0592 29.4119L76.0377 31.1561C78.5997 29.7189 80.6347 27.7142 82.1315 25.1572L80.4054 24.1468ZM75.0592 29.4119C72.8113 30.6729 70.3265 31.308 67.5844 31.308V33.308C70.6504 33.308 73.4749 32.5938 76.0377 31.1561L75.0592 29.4119ZM67.5844 26.444C70.2956 26.444 72.5462 25.5278 74.2264 23.646L72.7345 22.314C71.4813 23.7176 69.8013 24.444 67.5844 24.444V26.444ZM74.2198 23.6533C75.9178 21.7888 76.7244 19.3595 76.7244 16.468H74.7244C74.7244 18.9738 74.035 20.8859 72.7411 22.3067L74.2198 23.6533ZM76.7244 16.468C76.7244 13.5512 75.9199 11.116 74.2137 9.27606L72.7472 10.6359C74.033 12.0226 74.7244 13.9288 74.7244 16.468H76.7244ZM74.2264 9.28998C72.5462 7.40822 70.2956 6.492 67.5844 6.492V8.492C69.8013 8.492 71.4813 9.21844 72.7345 10.622L74.2264 9.28998ZM67.5844 6.492C64.8537 6.492 62.5785 7.38649 60.8672 9.23206L62.3337 10.5919C63.6144 9.21084 65.3285 8.492 67.5844 8.492V6.492ZM60.8605 9.23933C59.1856 11.0817 58.4004 13.5302 58.4004 16.468H60.4004C60.4004 13.8912 61.0819 11.969 62.3404 10.5847L60.8605 9.23933ZM58.4004 16.468C58.4004 19.3806 59.1876 21.8231 60.8545 23.69L62.3464 22.358C61.0799 20.9395 60.4004 19.0114 60.4004 16.468H58.4004ZM60.8672 23.7039C62.5785 25.5495 64.8537 26.444 67.5844 26.444V24.444C65.3285 24.444 63.6144 23.7252 62.3337 22.3441L60.8672 23.7039ZM140.146 1.112H141.146V0.111999H140.146V1.112ZM140.146 32V33H141.146V32H140.146ZM132.622 32H131.622V33H132.622V32ZM132.622 13.476H133.622L131.685 13.1266L132.622 13.476ZM125.714 32V33H126.409L126.651 32.3494L125.714 32ZM119.642 32L118.706 32.3506L118.949 33H119.642V32ZM112.69 13.432L113.627 13.0814L111.69 13.432H112.69ZM112.69 32V33H113.69V32H112.69ZM105.166 32H104.166V33H105.166V32ZM105.166 1.112V0.111999H104.166V1.112H105.166ZM114.054 1.112L114.981 0.736338L114.728 0.111999H114.054V1.112ZM122.722 22.496L121.796 22.8717L122.727 25.1696L123.65 22.8684L122.722 22.496ZM131.302 1.112V0.111999H130.626L130.374 0.739621L131.302 1.112ZM139.146 1.112V32H141.146V1.112H139.146ZM140.146 31H132.622V33H140.146V31ZM133.622 32V13.476H131.622V32H133.622ZM131.685 13.1266L124.777 31.6506L126.651 32.3494L133.559 13.8254L131.685 13.1266ZM125.714 31H119.642V33H125.714V31ZM120.579 31.6494L113.627 13.0814L111.754 13.7826L118.706 32.3506L120.579 31.6494ZM111.69 13.432V32H113.69V13.432H111.69ZM112.69 31H105.166V33H112.69V31ZM106.166 32V1.112H104.166V32H106.166ZM105.166 2.112H114.054V0.111999H105.166V2.112ZM113.128 1.48766L121.796 22.8717L123.649 22.1203L114.981 0.736338L113.128 1.48766ZM123.65 22.8684L132.23 1.48438L130.374 0.739621L121.794 22.1236L123.65 22.8684ZM131.302 2.112H140.146V0.111999H131.302V2.112ZM170.681 1.112H171.681V0.111999H170.681V1.112ZM170.681 32V33H171.681V32H170.681ZM163.157 32H162.157V33H163.157V32ZM163.157 1.112V0.111999H162.157V1.112H163.157ZM169.681 1.112V32H171.681V1.112H169.681ZM170.681 31H163.157V33H170.681V31ZM164.157 32V1.112H162.157V32H164.157ZM163.157 2.112H170.681V0.111999H163.157V2.112ZM221.365 32V33H222.365V32H221.365ZM213.841 32L213.007 32.5511L213.304 33H213.841V32ZM201.257 12.948L202.092 12.3969L200.257 9.61958V12.948H201.257ZM201.257 32V33H202.257V32H201.257ZM193.733 32H192.733V33H193.733V32ZM193.733 1.112V0.111999H192.733V1.112H193.733ZM201.257 1.112L202.093 0.562629L201.797 0.111999H201.257V1.112ZM213.841 20.252L213.006 20.8014L214.841 23.5932V20.252H213.841ZM213.841 1.112V0.111999H212.841V1.112H213.841ZM221.365 1.112H222.365V0.111999H221.365V1.112ZM221.365 31H213.841V33H221.365V31ZM214.676 31.4489L202.092 12.3969L200.423 13.4991L213.007 32.5511L214.676 31.4489ZM200.257 12.948V32H202.257V12.948H200.257ZM201.257 31H193.733V33H201.257V31ZM194.733 32V1.112H192.733V32H194.733ZM193.733 2.112H201.257V0.111999H193.733V2.112ZM200.422 1.66137L213.006 20.8014L214.677 19.7026L202.093 0.562629L200.422 1.66137ZM214.841 20.252V1.112H212.841V20.252H214.841ZM213.841 2.112H221.365V0.111999H213.841V2.112ZM220.365 1.112V32H222.365V1.112H220.365ZM264.923 10.88L264.045 11.3571L264.328 11.88H264.923V10.88ZM262.503 8.548L262.026 9.42685L262.041 9.43489L262.056 9.44242L262.503 8.548ZM252.999 10.132L253.733 10.8114L253.739 10.8047L252.999 10.132ZM253.087 23.2L252.361 23.887L252.367 23.8938L252.374 23.9005L253.087 23.2ZM264.131 24.168L263.543 23.3592L263.534 23.3658L264.131 24.168ZM266.947 20.12L267.896 20.4362L268.335 19.12H266.947V20.12ZM257.399 20.12H256.399V21.12H257.399V20.12ZM257.399 14.576V13.576H256.399V14.576H257.399ZM273.767 14.576H274.767V13.576H273.767V14.576ZM273.767 21.572L274.726 21.8566L274.767 21.7173V21.572H273.767ZM270.907 26.808L270.14 26.1664L270.133 26.1748L270.907 26.808ZM265.847 30.724L265.411 29.8245L265.847 30.724ZM250.711 30.24L250.218 31.1096L250.224 31.1132L250.23 31.1167L250.711 30.24ZM245.123 24.652L244.249 25.1377L244.254 25.1458L245.123 24.652ZM245.123 8.372L244.251 7.88274L244.249 7.88636L245.123 8.372ZM250.711 2.784L251.197 3.65819L251.205 3.65356L250.711 2.784ZM268.179 3.444L267.601 4.25966L267.605 4.26279L268.179 3.444ZM273.239 10.88V11.88H274.532L274.207 10.629L273.239 10.88ZM265.802 10.4029C265.146 9.19416 264.188 8.27214 262.951 7.65357L262.056 9.44242C262.931 9.87986 263.586 10.5125 264.045 11.3571L265.802 10.4029ZM262.98 7.66914C261.78 7.01752 260.392 6.712 258.851 6.712V8.712C260.127 8.712 261.173 8.96381 262.026 9.42685L262.98 7.66914ZM258.851 6.712C256.172 6.712 253.939 7.61195 252.259 9.45933L253.739 10.8047C254.993 9.42538 256.662 8.712 258.851 8.712V6.712ZM252.266 9.45259C250.59 11.2627 249.799 13.6532 249.799 16.512H251.799C251.799 14.0322 252.476 12.1693 253.733 10.8114L252.266 9.45259ZM249.799 16.512C249.799 19.5381 250.615 22.04 252.361 23.887L253.814 22.513C252.51 21.1333 251.799 19.1765 251.799 16.512H249.799ZM252.374 23.9005C254.156 25.7162 256.562 26.576 259.467 26.576V24.576C256.975 24.576 255.128 23.8518 253.801 22.4995L252.374 23.9005ZM259.467 26.576C261.491 26.576 263.266 26.0588 264.728 24.9702L263.534 23.3658C262.474 24.1545 261.139 24.576 259.467 24.576V26.576ZM264.72 24.9767C266.205 23.8964 267.255 22.3608 267.896 20.4362L265.999 19.8038C265.467 21.3992 264.639 22.5623 263.543 23.3593L264.72 24.9767ZM266.947 19.12H257.399V21.12H266.947V19.12ZM258.399 20.12V14.576H256.399V20.12H258.399ZM257.399 15.576H273.767V13.576H257.399V15.576ZM272.767 14.576V21.572H274.767V14.576H272.767ZM272.809 21.2874C272.293 23.0245 271.409 24.6499 270.14 26.1664L271.674 27.4496C273.105 25.7394 274.127 23.8742 274.726 21.8566L272.809 21.2874ZM270.133 26.1748C268.914 27.6657 267.346 28.8844 265.411 29.8245L266.284 31.6235C268.455 30.569 270.261 29.177 271.681 27.4412L270.133 26.1748ZM265.411 29.8245C263.51 30.7475 261.345 31.22 258.895 31.22V33.22C261.608 33.22 264.078 32.6952 266.284 31.6235L265.411 29.8245ZM258.895 31.22C255.994 31.22 253.434 30.5937 251.193 29.3633L250.23 31.1167C252.799 32.5263 255.696 33.22 258.895 33.22V31.22ZM251.205 29.3704C248.986 28.1102 247.253 26.3773 245.993 24.1582L244.254 25.1458C245.692 27.6787 247.685 29.6712 250.218 31.1096L251.205 29.3704ZM245.998 24.1664C244.77 21.9564 244.143 19.4139 244.143 16.512H242.143C242.143 19.7114 242.837 22.5956 244.249 25.1376L245.998 24.1664ZM244.143 16.512C244.143 13.6101 244.77 11.0676 245.998 8.85764L244.249 7.88636C242.837 10.4284 242.143 13.3126 242.143 16.512H244.143ZM245.996 8.86125C247.256 6.61505 248.986 4.88676 251.197 3.65816L250.226 1.90984C247.685 3.32123 245.69 5.31828 244.251 7.88275L245.996 8.86125ZM251.205 3.65356C253.414 2.39935 255.953 1.76 258.851 1.76V-0.240002C255.648 -0.240002 252.761 0.469985 250.218 1.91444L251.205 3.65356ZM258.851 1.76C262.381 1.76 265.278 2.61214 267.601 4.25965L268.758 2.62835C266.035 0.697191 262.713 -0.240002 258.851 -0.240002V1.76ZM267.605 4.26279C269.952 5.90843 271.506 8.18052 272.271 11.131L274.207 10.629C273.33 7.24348 271.51 4.55823 268.754 2.62521L267.605 4.26279ZM273.239 9.88H264.923V11.88H273.239V9.88ZM327.563 31.208L327.184 32.1333L327.184 32.1333L327.563 31.208ZM323.251 27.952L322.445 28.5441L322.453 28.5546L323.251 27.952ZM321.579 22.76V21.76H320.55L320.58 22.789L321.579 22.76ZM329.587 22.76L330.582 22.658L330.49 21.76H329.587V22.76ZM330.775 25.4L330.101 26.1385L330.11 26.1467L330.119 26.1546L330.775 25.4ZM336.055 25.532L336.667 26.3233L336.678 26.3148L336.689 26.306L336.055 25.532ZM336.231 21.484L335.524 22.1911L335.534 22.2012L335.545 22.211L336.231 21.484ZM334.339 20.252L333.937 21.1673L333.943 21.1702L333.95 21.173L334.339 20.252ZM331.171 19.152L330.876 20.1075L330.886 20.1104L331.171 19.152ZM326.287 17.304L325.848 18.2026L326.287 17.304ZM323.031 14.576L323.829 13.9729L323.829 13.9729L323.031 14.576ZM324.791 3.136L325.404 3.92658L325.411 3.92116L324.791 3.136ZM341.159 3.136L340.54 3.9212L340.547 3.92655L341.159 3.136ZM344.503 9.912V10.912H345.555L345.502 9.86156L344.503 9.912ZM336.363 9.912L335.365 9.97072L335.42 10.912H336.363V9.912ZM335.263 7.58L334.607 8.3346L334.617 8.34291L334.626 8.35096L335.263 7.58ZM330.467 7.448L331.111 8.21291L331.123 8.20325L331.134 8.19324L330.467 7.448ZM331.039 11.848L331.55 10.9881L331.55 10.9881L331.039 11.848ZM335.439 13.652L335.76 12.7046L335.747 12.7006L335.439 13.652ZM340.279 15.588L339.832 16.4825L339.84 16.4866L340.279 15.588ZM343.535 18.272L342.745 18.8846L342.745 18.8846L343.535 18.272ZM343.535 27.6L342.69 27.0654L342.686 27.0716L342.682 27.0778L343.535 27.6ZM339.663 31.032L339.216 30.1376L339.216 30.1376L339.663 31.032ZM333.635 31.308C331.485 31.308 329.593 30.9591 327.942 30.2827L327.184 32.1333C329.112 32.9235 331.268 33.308 333.635 33.308V31.308ZM327.942 30.2827C326.307 29.6122 325.019 28.633 324.049 27.3494L322.453 28.5546C323.655 30.1457 325.241 31.3371 327.184 32.1333L327.942 30.2827ZM324.057 27.3599C323.137 26.1078 322.632 24.5805 322.579 22.731L320.58 22.789C320.643 24.9875 321.253 26.9215 322.445 28.5441L324.057 27.3599ZM321.579 23.76H329.587V21.76H321.579V23.76ZM328.592 22.862C328.728 24.1848 329.202 25.3173 330.101 26.1385L331.45 24.6615C331 24.2507 330.681 23.6232 330.582 22.658L328.592 22.862ZM330.119 26.1546C331.013 26.9316 332.143 27.28 333.415 27.28V25.28C332.517 25.28 331.887 25.0417 331.431 24.6454L330.119 26.1546ZM333.415 27.28C334.671 27.28 335.792 26.9992 336.667 26.3233L335.444 24.7407C335.028 25.0621 334.389 25.28 333.415 25.28V27.28ZM336.689 26.306C337.589 25.5693 338.023 24.5543 338.023 23.376H336.023C336.023 24.0163 335.812 24.4387 335.422 24.758L336.689 26.306ZM338.023 23.376C338.023 22.3537 337.657 21.4549 336.918 20.757L335.545 22.211C335.862 22.5104 336.023 22.873 336.023 23.376H338.023ZM336.938 20.7769C336.334 20.1728 335.59 19.6953 334.729 19.331L333.95 21.173C334.614 21.4541 335.131 21.7979 335.524 22.1911L336.938 20.7769ZM334.742 19.3367C333.952 18.989 332.849 18.6084 331.457 18.1936L330.886 20.1104C332.251 20.5169 333.26 20.8697 333.937 21.1673L334.742 19.3367ZM331.466 18.1965C329.5 17.5892 327.925 16.9907 326.726 16.4054L325.848 18.2026C327.173 18.8493 328.854 19.4828 330.876 20.1075L331.466 18.1965ZM326.726 16.4054C325.616 15.8634 324.651 15.0598 323.829 13.9729L322.234 15.1791C323.23 16.4976 324.436 17.5126 325.848 18.2026L326.726 16.4054ZM323.829 13.9729C323.084 12.9877 322.667 11.6486 322.667 9.868H320.667C320.667 11.9594 321.16 13.7589 322.234 15.1791L323.829 13.9729ZM322.667 9.868C322.667 7.27018 323.59 5.33147 325.404 3.92655L324.179 2.34545C321.827 4.1672 320.667 6.71649 320.667 9.868H322.667ZM325.411 3.92116C327.275 2.45057 329.752 1.672 332.931 1.672V-0.328001C329.422 -0.328001 326.473 0.536091 324.172 2.35083L325.411 3.92116ZM332.931 1.672C336.174 1.672 338.678 2.45286 340.54 3.92117L341.779 2.35083C339.475 0.533809 336.494 -0.328001 332.931 -0.328001V1.672ZM340.547 3.92655C342.373 5.34146 343.371 7.31567 343.505 9.96244L345.502 9.86156C345.342 6.70033 344.11 4.1572 341.772 2.34545L340.547 3.92655ZM344.503 8.912H336.363V10.912H344.503V8.912ZM337.362 9.85328C337.289 8.62183 336.82 7.56908 335.9 6.80904L334.626 8.35096C335.056 8.70559 335.32 9.2075 335.365 9.97072L337.362 9.85328ZM335.919 6.82539C335.031 6.05269 333.918 5.7 332.667 5.7V7.7C333.528 7.7 334.146 7.93397 334.607 8.3346L335.919 6.82539ZM332.667 5.7C331.568 5.7 330.579 6.00635 329.8 6.70276L331.134 8.19324C331.47 7.89231 331.948 7.7 332.667 7.7V5.7ZM329.823 6.68309C328.986 7.3883 328.631 8.39122 328.631 9.516H330.631C330.631 8.8221 330.834 8.44636 331.111 8.21291L329.823 6.68309ZM328.631 9.516C328.631 10.9048 329.321 11.9909 330.529 12.7079L331.55 10.9881C330.88 10.5904 330.631 10.1219 330.631 9.516H328.631ZM330.529 12.7079C331.566 13.3235 333.118 13.9521 335.131 14.6034L335.747 12.7006C333.771 12.0613 332.39 11.4872 331.55 10.9881L330.529 12.7079ZM335.119 14.5993C337.09 15.2661 338.656 15.8946 339.832 16.4824L340.726 14.6936C339.438 14.0494 337.778 13.3873 335.76 12.7047L335.119 14.5993ZM339.84 16.4866C340.956 17.0315 341.924 17.8251 342.745 18.8846L344.326 17.6594C343.328 16.3722 342.125 15.3765 340.718 14.6894L339.84 16.4866ZM342.745 18.8846C343.488 19.8433 343.899 21.1224 343.899 22.804H345.899C345.899 20.7896 345.401 19.0473 344.326 17.6594L342.745 18.8846ZM343.899 22.804C343.899 24.3817 343.495 25.7937 342.69 27.0654L344.38 28.1346C345.395 26.5316 345.899 24.7463 345.899 22.804H343.899ZM342.682 27.0778C341.912 28.3357 340.772 29.3595 339.216 30.1376L340.11 31.9264C341.957 31.0031 343.398 29.7389 344.388 28.1222L342.682 27.0778ZM339.216 30.1376C337.681 30.9053 335.831 31.308 333.635 31.308V33.308C336.074 33.308 338.243 32.86 340.11 31.9264L339.216 30.1376ZM373.73 30.284L373.24 31.1562L373.245 31.1587L373.73 30.284ZM367.966 24.652L367.1 25.1526L367.103 25.1588L367.107 25.165L367.966 24.652ZM367.966 8.328L367.107 7.81502L367.103 7.82282L367.966 8.328ZM373.73 2.696L373.245 1.82133L373.24 1.82386L373.73 2.696ZM389.702 2.696L389.212 3.56815L389.217 3.57065L389.702 2.696ZM395.422 8.328L394.554 8.8253L394.559 8.83318L395.422 8.328ZM395.422 24.652L396.285 25.1572L396.287 25.1526L395.422 24.652ZM389.702 30.284L390.191 31.1561L390.191 31.1561L389.702 30.284ZM387.634 22.98L386.894 22.3066L386.888 22.314L387.634 22.98ZM387.634 9.956L386.888 10.622L386.894 10.629L386.9 10.6359L387.634 9.956ZM375.754 9.912L375.02 9.23203L375.014 9.23933L375.754 9.912ZM375.754 23.024L375.008 23.69L375.014 23.697L375.02 23.7039L375.754 23.024ZM381.738 31.308C378.996 31.308 376.494 30.6729 374.214 29.4093L373.245 31.1587C375.834 32.5938 378.672 33.308 381.738 33.308V31.308ZM374.219 29.4119C371.968 28.1494 370.173 26.397 368.824 24.139L367.107 25.165C368.633 27.7177 370.68 29.7199 373.24 31.1561L374.219 29.4119ZM368.831 24.1514C367.518 21.8801 366.854 19.3271 366.854 16.468H364.854C364.854 19.6516 365.597 22.5545 367.1 25.1526L368.831 24.1514ZM366.854 16.468C366.854 13.6088 367.518 11.0725 368.829 8.83318L367.103 7.82282C365.597 10.3942 364.854 13.2845 364.854 16.468H366.854ZM368.824 8.84095C370.173 6.58302 371.968 4.83061 374.219 3.56814L373.24 1.82386C370.68 3.26005 368.633 5.26231 367.107 7.81504L368.824 8.84095ZM374.214 3.57065C376.494 2.30715 378.996 1.672 381.738 1.672V-0.328001C378.672 -0.328001 375.834 0.386184 373.245 1.82135L374.214 3.57065ZM381.738 1.672C384.48 1.672 386.964 2.30713 389.212 3.56814L390.191 1.82386C387.628 0.386207 384.803 -0.328001 381.738 -0.328001V1.672ZM389.217 3.57065C391.492 4.83187 393.266 6.57899 394.554 8.82528L396.289 7.83072C394.819 5.26634 392.78 3.25879 390.186 1.82135L389.217 3.57065ZM394.559 8.83318C395.869 11.0725 396.534 13.6088 396.534 16.468H398.534C398.534 13.2845 397.79 10.3942 396.285 7.82282L394.559 8.83318ZM396.534 16.468C396.534 19.3271 395.869 21.8802 394.556 24.1514L396.287 25.1526C397.79 22.5545 398.534 19.6516 398.534 16.468H396.534ZM394.559 24.1468C393.239 26.4005 391.461 28.1504 389.212 29.4119L390.191 31.1561C392.753 29.7189 394.788 27.7142 396.285 25.1572L394.559 24.1468ZM389.212 29.4119C386.964 30.6729 384.48 31.308 381.738 31.308V33.308C384.803 33.308 387.628 32.5938 390.191 31.1561L389.212 29.4119ZM381.738 26.444C384.449 26.444 386.699 25.5278 388.379 23.646L386.888 22.314C385.634 23.7176 383.954 24.444 381.738 24.444V26.444ZM388.373 23.6533C390.071 21.7888 390.878 19.3595 390.878 16.468H388.878C388.878 18.9738 388.188 20.8859 386.894 22.3067L388.373 23.6533ZM390.878 16.468C390.878 13.5512 390.073 11.116 388.367 9.27606L386.9 10.6359C388.186 12.0226 388.878 13.9288 388.878 16.468H390.878ZM388.379 9.28998C386.699 7.40822 384.449 6.492 381.738 6.492V8.492C383.954 8.492 385.634 9.21844 386.888 10.622L388.379 9.28998ZM381.738 6.492C379.007 6.492 376.732 7.38649 375.02 9.23206L376.487 10.5919C377.767 9.21084 379.482 8.492 381.738 8.492V6.492ZM375.014 9.23933C373.339 11.0817 372.554 13.5302 372.554 16.468H374.554C374.554 13.8912 375.235 11.969 376.493 10.5847L375.014 9.23933ZM372.554 16.468C372.554 19.3806 373.341 21.8231 375.008 23.69L376.499 22.358C375.233 20.9395 374.554 19.0114 374.554 16.468H372.554ZM375.02 23.7039C376.732 25.5495 379.007 26.444 381.738 26.444V24.444C379.482 24.444 377.767 23.7252 376.487 22.3441L375.02 23.7039ZM425.919 30.284L425.43 31.1562L425.435 31.1587L425.919 30.284ZM420.155 24.652L419.29 25.1526L419.293 25.1588L419.297 25.165L420.155 24.652ZM420.155 8.328L419.297 7.81502L419.292 7.82282L420.155 8.328ZM425.919 2.696L425.435 1.82133L425.43 1.82386L425.919 2.696ZM441.891 2.696L441.402 3.56815L441.407 3.57065L441.891 2.696ZM447.611 8.328L446.744 8.8253L446.748 8.83318L447.611 8.328ZM447.611 24.652L448.474 25.1572L448.477 25.1526L447.611 24.652ZM441.891 30.284L442.381 31.1561L442.381 31.1561L441.891 30.284ZM439.823 22.98L439.084 22.3066L439.077 22.314L439.823 22.98ZM439.823 9.956L439.077 10.622L439.084 10.629L439.09 10.6359L439.823 9.956ZM427.943 9.912L427.21 9.23203L427.203 9.23933L427.943 9.912ZM427.943 23.024L427.197 23.69L427.204 23.697L427.21 23.7039L427.943 23.024ZM433.927 31.308C431.185 31.308 428.684 30.6729 426.404 29.4093L425.435 31.1587C428.024 32.5938 430.861 33.308 433.927 33.308V31.308ZM426.409 29.4119C424.158 28.1494 422.363 26.397 421.014 24.139L419.297 25.165C420.822 27.7177 422.87 29.7199 425.43 31.1561L426.409 29.4119ZM421.021 24.1514C419.708 21.8801 419.043 19.3271 419.043 16.468H417.043C417.043 19.6516 417.787 22.5545 419.29 25.1526L421.021 24.1514ZM419.043 16.468C419.043 13.6088 419.708 11.0725 421.018 8.83318L419.292 7.82282C417.787 10.3942 417.043 13.2845 417.043 16.468H419.043ZM421.014 8.84095C422.363 6.58302 424.158 4.83061 426.409 3.56814L425.43 1.82386C422.87 3.26005 420.822 5.26231 419.297 7.81504L421.014 8.84095ZM426.404 3.57065C428.684 2.30715 431.185 1.672 433.927 1.672V-0.328001C430.861 -0.328001 428.024 0.386184 425.435 1.82135L426.404 3.57065ZM433.927 1.672C436.669 1.672 439.154 2.30713 441.402 3.56814L442.381 1.82386C439.818 0.386207 436.993 -0.328001 433.927 -0.328001V1.672ZM441.407 3.57065C443.682 4.83187 445.456 6.57899 446.744 8.82528L448.479 7.83072C447.009 5.26634 444.97 3.25879 442.376 1.82135L441.407 3.57065ZM446.748 8.83318C448.059 11.0725 448.723 13.6088 448.723 16.468H450.723C450.723 13.2845 449.98 10.3942 448.474 7.82282L446.748 8.83318ZM448.723 16.468C448.723 19.3271 448.059 21.8802 446.746 24.1514L448.477 25.1526C449.98 22.5545 450.723 19.6516 450.723 16.468H448.723ZM446.748 24.1468C445.429 26.4005 443.651 28.1504 441.402 29.4119L442.381 31.1561C444.943 29.7189 446.978 27.7142 448.474 25.1572L446.748 24.1468ZM441.402 29.4119C439.154 30.6729 436.669 31.308 433.927 31.308V33.308C436.993 33.308 439.818 32.5938 442.381 31.1561L441.402 29.4119ZM433.927 26.444C436.639 26.444 438.889 25.5278 440.569 23.646L439.077 22.314C437.824 23.7176 436.144 24.444 433.927 24.444V26.444ZM440.563 23.6533C442.261 21.7888 443.067 19.3595 443.067 16.468H441.067C441.067 18.9738 440.378 20.8859 439.084 22.3067L440.563 23.6533ZM443.067 16.468C443.067 13.5512 442.263 11.116 440.557 9.27606L439.09 10.6359C440.376 12.0226 441.067 13.9288 441.067 16.468H443.067ZM440.569 9.28998C438.889 7.40822 436.639 6.492 433.927 6.492V8.492C436.144 8.492 437.824 9.21844 439.077 10.622L440.569 9.28998ZM433.927 6.492C431.197 6.492 428.921 7.38649 427.21 9.23206L428.677 10.5919C429.957 9.21084 431.671 8.492 433.927 8.492V6.492ZM427.203 9.23933C425.529 11.0817 424.743 13.5302 424.743 16.468H426.743C426.743 13.8912 427.425 11.969 428.683 10.5847L427.203 9.23933ZM424.743 16.468C424.743 19.3806 425.531 21.8231 427.197 23.69L428.689 22.358C427.423 20.9395 426.743 19.0114 426.743 16.468H424.743ZM427.21 23.7039C428.921 25.5495 431.197 26.444 433.927 26.444V24.444C431.671 24.444 429.957 23.7252 428.677 22.3441L427.21 23.7039ZM499.141 32V33H500.141V32H499.141ZM491.617 32L490.783 32.5511L491.079 33H491.617V32ZM479.033 12.948L479.868 12.3969L478.033 9.61958V12.948H479.033ZM479.033 32V33H480.033V32H479.033ZM471.509 32H470.509V33H471.509V32ZM471.509 1.112V0.111999H470.509V1.112H471.509ZM479.033 1.112L479.869 0.562629L479.573 0.111999H479.033V1.112ZM491.617 20.252L490.782 20.8014L492.617 23.5932V20.252H491.617ZM491.617 1.112V0.111999H490.617V1.112H491.617ZM499.141 1.112H500.141V0.111999H499.141V1.112ZM499.141 31H491.617V33H499.141V31ZM492.452 31.4489L479.868 12.3969L478.199 13.4991L490.783 32.5511L492.452 31.4489ZM478.033 12.948V32H480.033V12.948H478.033ZM479.033 31H471.509V33H479.033V31ZM472.509 32V1.112H470.509V32H472.509ZM471.509 2.112H479.033V0.111999H471.509V2.112ZM478.198 1.66137L490.782 20.8014L492.453 19.7026L479.869 0.562629L478.198 1.66137ZM492.617 20.252V1.112H490.617V20.252H492.617ZM491.617 2.112H499.141V0.111999H491.617V2.112ZM498.141 1.112V32H500.141V1.112H498.141Z" fill="white" mask="url(#path-1-outside-1_1_194)"/>
</svg>
