<svg width="109" height="108" viewBox="0 0 109 108" fill="none" xmlns="http://www.w3.org/2000/svg">
<circle cx="54.4137" cy="54" r="53.5" stroke="white"/>
<path d="M44.8177 62.068C45.6337 61.42 46.0057 61.12 45.9337 61.168C48.2857 59.224 50.1337 57.628 51.4777 56.38C52.8457 55.132 53.9977 53.824 54.9337 52.456C55.8697 51.088 56.3377 49.756 56.3377 48.46C56.3377 47.476 56.1097 46.708 55.6537 46.156C55.1977 45.604 54.5137 45.328 53.6017 45.328C52.6897 45.328 51.9697 45.676 51.4417 46.372C50.9377 47.044 50.6857 48.004 50.6857 49.252H44.7457C44.7937 47.212 45.2257 45.508 46.0417 44.14C46.8817 42.772 47.9737 41.764 49.3177 41.116C50.6857 40.468 52.1977 40.144 53.8537 40.144C56.7097 40.144 58.8577 40.876 60.2977 42.34C61.7617 43.804 62.4937 45.712 62.4937 48.064C62.4937 50.632 61.6177 53.02 59.8657 55.228C58.1137 57.412 55.8817 59.548 53.1697 61.636H62.8897V66.64H44.8177V62.068Z" fill="white"/>
</svg>
