<svg width="109" height="108" viewBox="0 0 109 108" fill="none" xmlns="http://www.w3.org/2000/svg">
<circle cx="54.4137" cy="54" r="53.5" stroke="white"/>
<path d="M45.2497 48.136C45.3457 45.568 46.1857 43.588 47.7697 42.196C49.3537 40.804 51.5017 40.108 54.2137 40.108C56.0137 40.108 57.5497 40.42 58.8217 41.044C60.1177 41.668 61.0897 42.52 61.7377 43.6C62.4097 44.68 62.7457 45.892 62.7457 47.236C62.7457 48.82 62.3497 50.116 61.5577 51.124C60.7657 52.108 59.8417 52.78 58.7857 53.14V53.284C60.1537 53.74 61.2337 54.496 62.0257 55.552C62.8177 56.608 63.2137 57.964 63.2137 59.62C63.2137 61.108 62.8657 62.428 62.1697 63.58C61.4977 64.708 60.5017 65.596 59.1817 66.244C57.8857 66.892 56.3377 67.216 54.5377 67.216C51.6577 67.216 49.3537 66.508 47.6257 65.092C45.9217 63.676 45.0217 61.54 44.9257 58.684H50.9017C50.9257 59.74 51.2257 60.58 51.8017 61.204C52.3777 61.804 53.2177 62.104 54.3217 62.104C55.2577 62.104 55.9777 61.84 56.4817 61.312C57.0097 60.76 57.2737 60.04 57.2737 59.152C57.2737 58 56.9017 57.172 56.1577 56.668C55.4377 56.14 54.2737 55.876 52.6657 55.876H51.5137V50.872H52.6657C53.8897 50.872 54.8737 50.668 55.6177 50.26C56.3857 49.828 56.7697 49.072 56.7697 47.992C56.7697 47.128 56.5297 46.456 56.0497 45.976C55.5697 45.496 54.9097 45.256 54.0697 45.256C53.1577 45.256 52.4737 45.532 52.0177 46.084C51.5857 46.636 51.3337 47.32 51.2617 48.136H45.2497Z" fill="white"/>
</svg>
